<?xml version="1.0" encoding="UTF-8" standalone="no"?>
<!-- Created with Inkscape (http://www.inkscape.org/) -->

<svg
   width="256.0px"
   height="256.0px"
   viewBox="0 0 256.0 256.0"
   version="1.1"
   id="SVGRoot"
   sodipodi:docname="poly.svg"
   inkscape:version="1.2.2 (b0a8486541, 2022-12-01)"
   xmlns:inkscape="http://www.inkscape.org/namespaces/inkscape"
   xmlns:sodipodi="http://sodipodi.sourceforge.net/DTD/sodipodi-0.dtd"
   xmlns="http://www.w3.org/2000/svg"
   xmlns:svg="http://www.w3.org/2000/svg">
  <sodipodi:namedview
     id="namedview137"
     pagecolor="#ffffff"
     bordercolor="#666666"
     borderopacity="1.0"
     inkscape:showpageshadow="2"
     inkscape:pageopacity="0.0"
     inkscape:pagecheckerboard="0"
     inkscape:deskcolor="#d1d1d1"
     inkscape:document-units="px"
     showgrid="true"
     inkscape:zoom="2.3786088"
     inkscape:cx="193.39035"
     inkscape:cy="125.28332"
     inkscape:window-width="2560"
     inkscape:window-height="1371"
     inkscape:window-x="1920"
     inkscape:window-y="32"
     inkscape:window-maximized="1"
     inkscape:current-layer="layer2">
    <inkscape:grid
       type="xygrid"
       id="grid260" />
  </sodipodi:namedview>
  <defs
     id="defs132">
    <rect
       x="0"
       y="5"
       width="255"
       height="250"
       id="rect2095" />
    <clipPath
       clipPathUnits="userSpaceOnUse"
       id="clipPath1273">
      <path
         id="path1275"
         style="fill:#008080;fill-opacity:0.535853;stroke:#1c7c2a;stroke-width:10;stroke-linecap:round;stroke-opacity:0.519252"
         d="m 206.49609,85 a 91.372078,66.372078 0 0 1 4.87696,21.37305 A 91.372078,66.372078 0 0 1 120,172.74609 91.372078,66.372078 0 0 1 80.697266,166.14062 L 70,169.70703 V 255 H 260 V 85 Z" />
    </clipPath>
    <clipPath
       clipPathUnits="userSpaceOnUse"
       id="clipPath1277">
      <path
         id="path1279"
         style="fill:#008080;fill-opacity:0.535853;stroke:#1c7c2a;stroke-width:10;stroke-linecap:round;stroke-opacity:0.519252"
         d="m 206.49609,85 a 91.372078,66.372078 0 0 1 4.87696,21.37305 A 91.372078,66.372078 0 0 1 120,172.74609 91.372078,66.372078 0 0 1 80.697266,166.14062 L 70,169.70703 V 255 H 260 V 85 Z" />
    </clipPath>
    <rect
       x="0"
       y="5"
       width="255"
       height="250"
       id="rect3390" />
  </defs>
  <g
     inkscape:label="Layer 1"
     inkscape:groupmode="layer"
     id="layer1" />
  <g
     inkscape:groupmode="layer"
     id="layer2"
     inkscape:label="Layer 2">
    <g
       aria-label="usr
bin
perl"
       transform="translate(4,16)"
       id="text3388"
       style="font-weight:bold;font-size:64px;line-height:1.16em;font-family:'Britannian Runes';-inkscape-font-specification:'Britannian Runes Bold';text-align:center;text-anchor:middle;white-space:pre;shape-inside:url(#rect3390);display:inline;fill:#b3b3b3;stroke:#b3b3b3;stroke-width:2.5;stroke-linecap:round">
      <path
         d="m 73.390625,68.970623 6.96875,-48.6875 4.1875,-6.96875 29.593755,12.15625 3.21875,36.9375 -1.90625,2 -5.03125,4.5625 -1.46875,-36.4375 -0.875,-2.65625 -22.531255,-9.59375 -6.1875,42.5 z"
         id="path3441" />
      <path
         d="m 142.10937,68.970623 v -29.5 l -19.78124,16.40625 1.59375,-38.6875 5.84374,-4.9375 -1.65625,37.03125 19.75,-16.53125 v 32.21875 z"
         id="path3443" />
      <path
         d="m 178.01562,68.970623 -19.15625,-16.84375 h -1.46875 v 10.59375 l -5.46875,4.59375 1.46875,-46.625 5.46875,-6.9375 23.75,19.1875 -3.90625,5.4375 -16.75,8.375 20.65625,18.3125 -4.59375,3.90625 z m -20.625,-23.09375 4.5625,-2.21875 14.5,-8.375 -18.375,-13.8125 z"
         id="path3445" />
      <path
         d="m 92.828125,143.21062 4.9375,-5.96875 12.062505,-5.96875 1.875,-1.125 -11.906255,-10.90625 12.937505,-12.9375 -12.937505,-11.031249 -3.03125,38.906249 -6.875,6.09375 3.8125,-47.937499 5.21875,-5.9375 20.906255,14.968749 -13.0625,12.78125 14.96875,11.15625 -4.9375,7 z"
         id="path3447" />
      <path
         d="m 126.10938,143.21062 0.78125,-50.499999 5.96874,-5.21875 -0.875,51.374999 z"
         id="path3449" />
      <path
         d="m 145.42187,143.21062 2.03125,-31.5 -5.4375,-3.3125 -2.53125,0.25 -3.5,1.4375 v -3.71875 l 3.3125,-1.375 2.125,0.0937 3.15625,0.75 2.875,1.875 1.28125,-17.406249 4.65625,-3.96875 -1.28125,24.781249 4.90625,3.03125 3.78125,1.5625 3.375,-2.5625 1.96875,1.28125 -1.96875,4.65625 -2.71875,0.59375 -3.0625,-0.15625 -3.375,-2.03125 -3.5625,-2.375 -1.28125,24.78125 z"
         id="path3451" />
      <path
         d="m 52.421875,216.66937 5.28125,-52.4375 5.46875,-4.6875 -2.34375,23.96875 4.1875,-0.71875 4.6875,-1.84375 4.71875,-3.3125 4,-5 1.15625,-3.40625 0.59375,-8.03125 2.9375,2.34375 v 8.40625 q -1.6875,5.8125 -7.8125,9.53125 -6.09375,3.71875 -10.1875,5.5 l 11.9375,10.3125 2.25,5.46875 v 14.6875 h -3.8125 v -11.5625 l -2.25,-5.46875 -3.125,-3.71875 -10.0625,-8.59375 -2.34375,24.75 z"
         id="path3453" />
      <path
         d="m 129.89062,217.45062 2.78125,-46.4375 -16.96874,13.34375 -18.750005,-13.34375 -2.90625,39.9375 -6.625,5.78125 3.75,-49.3125 4.6875,-5.65625 23.687505,16 15.99999,-13.25 3.84375,-0.9375 -2.875,49.3125 z"
         id="path3455" />
      <path
         d="m 170.85937,217.45062 -19.15625,-16.84375 h -1.46875 v 10.59375 l -5.46875,4.59375 1.46875,-46.625 5.46875,-6.9375 23.75,19.1875 -3.90625,5.4375 -16.75,8.375 20.65625,18.3125 -4.59375,3.90625 z m -20.625,-23.09375 4.5625,-2.21875 14.5,-8.375 -18.375,-13.8125 z"
         id="path3457" />
      <path
         d="m 179.76562,217.45062 1.75,-52.5625 5.53125,-4.8125 16.90625,20.90625 -3.1875,4.8125 -13.71875,-13.625 -1.625,41.0625 z"
         id="path3459" />
    </g>
    <g
       aria-label="usr
bin
perl"
       transform="translate(0,10)"
       id="text2093"
       style="font-weight:bold;font-size:64px;line-height:1.16em;font-family:'Britannian Runes';-inkscape-font-specification:'Britannian Runes Bold';text-align:center;text-anchor:middle;white-space:pre;shape-inside:url(#rect2095);display:inline;stroke:#000000;stroke-width:2.5;stroke-linecap:round">
      <path
         d="m 73.390625,68.970623 6.96875,-48.6875 4.1875,-6.96875 29.593755,12.15625 3.21875,36.9375 -1.90625,2 -5.03125,4.5625 -1.46875,-36.4375 -0.875,-2.65625 -22.531255,-9.59375 -6.1875,42.5 z"
         id="path3420" />
      <path
         d="m 142.10937,68.970623 v -29.5 l -19.78124,16.40625 1.59375,-38.6875 5.84374,-4.9375 -1.65625,37.03125 19.75,-16.53125 v 32.21875 z"
         id="path3422" />
      <path
         d="m 178.01562,68.970623 -19.15625,-16.84375 h -1.46875 v 10.59375 l -5.46875,4.59375 1.46875,-46.625 5.46875,-6.9375 23.75,19.1875 -3.90625,5.4375 -16.75,8.375 20.65625,18.3125 -4.59375,3.90625 z m -20.625,-23.09375 4.5625,-2.21875 14.5,-8.375 -18.375,-13.8125 z"
         id="path3424" />
      <path
         d="m 92.828125,143.21062 4.9375,-5.96875 12.062505,-5.96875 1.875,-1.125 -11.906255,-10.90625 12.937505,-12.9375 -12.937505,-11.031249 -3.03125,38.906249 -6.875,6.09375 3.8125,-47.937499 5.21875,-5.9375 20.906255,14.968749 -13.0625,12.78125 14.96875,11.15625 -4.9375,7 z"
         id="path3426" />
      <path
         d="m 126.10938,143.21062 0.78125,-50.499999 5.96874,-5.21875 -0.875,51.374999 z"
         id="path3428" />
      <path
         d="m 145.42187,143.21062 2.03125,-31.5 -5.4375,-3.3125 -2.53125,0.25 -3.5,1.4375 v -3.71875 l 3.3125,-1.375 2.125,0.0937 3.15625,0.75 2.875,1.875 1.28125,-17.406249 4.65625,-3.96875 -1.28125,24.781249 4.90625,3.03125 3.78125,1.5625 3.375,-2.5625 1.96875,1.28125 -1.96875,4.65625 -2.71875,0.59375 -3.0625,-0.15625 -3.375,-2.03125 -3.5625,-2.375 -1.28125,24.78125 z"
         id="path3430" />
      <path
         d="m 52.421875,216.66937 5.28125,-52.4375 5.46875,-4.6875 -2.34375,23.96875 4.1875,-0.71875 4.6875,-1.84375 4.71875,-3.3125 4,-5 1.15625,-3.40625 0.59375,-8.03125 2.9375,2.34375 v 8.40625 q -1.6875,5.8125 -7.8125,9.53125 -6.09375,3.71875 -10.1875,5.5 l 11.9375,10.3125 2.25,5.46875 v 14.6875 h -3.8125 v -11.5625 l -2.25,-5.46875 -3.125,-3.71875 -10.0625,-8.59375 -2.34375,24.75 z"
         id="path3432" />
      <path
         d="m 129.89062,217.45062 2.78125,-46.4375 -16.96874,13.34375 -18.750005,-13.34375 -2.90625,39.9375 -6.625,5.78125 3.75,-49.3125 4.6875,-5.65625 23.687505,16 15.99999,-13.25 3.84375,-0.9375 -2.875,49.3125 z"
         id="path3434" />
      <path
         d="m 170.85937,217.45062 -19.15625,-16.84375 h -1.46875 v 10.59375 l -5.46875,4.59375 1.46875,-46.625 5.46875,-6.9375 23.75,19.1875 -3.90625,5.4375 -16.75,8.375 20.65625,18.3125 -4.59375,3.90625 z m -20.625,-23.09375 4.5625,-2.21875 14.5,-8.375 -18.375,-13.8125 z"
         id="path3436" />
      <path
         d="m 179.76562,217.45062 1.75,-52.5625 5.53125,-4.8125 16.90625,20.90625 -3.1875,4.8125 -13.71875,-13.625 -1.625,41.0625 z"
         id="path3438" />
    </g>
  </g>
</svg>
