<?xml version="1.0" encoding="UTF-8" standalone="no"?>
<!-- Created with Inkscape (http://www.inkscape.org/) -->

<svg
   width="256.0px"
   height="256.0px"
   viewBox="0 0 256.0 256.0"
   version="1.1"
   id="SVGRoot"
   sodipodi:docname="usyd.svg"
   inkscape:version="1.2.2 (b0a8486541, 2022-12-01)"
   xml:space="preserve"
   xmlns:inkscape="http://www.inkscape.org/namespaces/inkscape"
   xmlns:sodipodi="http://sodipodi.sourceforge.net/DTD/sodipodi-0.dtd"
   xmlns="http://www.w3.org/2000/svg"
   xmlns:svg="http://www.w3.org/2000/svg"><sodipodi:namedview
     id="namedview137"
     pagecolor="#ffffff"
     bordercolor="#666666"
     borderopacity="1.0"
     inkscape:showpageshadow="2"
     inkscape:pageopacity="0.0"
     inkscape:pagecheckerboard="0"
     inkscape:deskcolor="#d1d1d1"
     inkscape:document-units="px"
     showgrid="true"
     inkscape:zoom="2.3786088"
     inkscape:cx="185.82291"
     inkscape:cy="100.4789"
     inkscape:window-width="2560"
     inkscape:window-height="1371"
     inkscape:window-x="1920"
     inkscape:window-y="32"
     inkscape:window-maximized="1"
     inkscape:current-layer="layer2"><inkscape:grid
       type="xygrid"
       id="grid260" /></sodipodi:namedview><defs
     id="defs132"><rect
       x="0"
       y="5"
       width="255"
       height="250"
       id="rect2095" /><clipPath
       clipPathUnits="userSpaceOnUse"
       id="clipPath1273"><path
         id="path1275"
         style="fill:#008080;fill-opacity:0.535853;stroke:#1c7c2a;stroke-width:10;stroke-linecap:round;stroke-opacity:0.519252"
         d="m 206.49609,85 a 91.372078,66.372078 0 0 1 4.87696,21.37305 A 91.372078,66.372078 0 0 1 120,172.74609 91.372078,66.372078 0 0 1 80.697266,166.14062 L 70,169.70703 V 255 H 260 V 85 Z" /></clipPath><clipPath
       clipPathUnits="userSpaceOnUse"
       id="clipPath1277"><path
         id="path1279"
         style="fill:#008080;fill-opacity:0.535853;stroke:#1c7c2a;stroke-width:10;stroke-linecap:round;stroke-opacity:0.519252"
         d="m 206.49609,85 a 91.372078,66.372078 0 0 1 4.87696,21.37305 A 91.372078,66.372078 0 0 1 120,172.74609 91.372078,66.372078 0 0 1 80.697266,166.14062 L 70,169.70703 V 255 H 260 V 85 Z" /></clipPath><rect
       x="0"
       y="5"
       width="255"
       height="250"
       id="rect3390" /></defs><g
     inkscape:label="Layer 1"
     inkscape:groupmode="layer"
     id="layer1" /><g
     inkscape:groupmode="layer"
     id="layer2"
     inkscape:label="Layer 2"><path
       class="st0"
       d="m 134.17808,163.20337 h 17.48511 v -2.56448 h -17.48511 z m 0,7.22719 h 17.48511 v -2.56449 h -17.48511 z m 0,-14.45437 h 17.48511 v -2.56448 h -17.48511 z m -12.35616,4.6627 h -17.48511 v 2.56448 h 17.48511 z m 0,7.22718 h -17.48511 v 2.56449 h 17.48511 z m 0,-14.45436 h -17.48511 v 2.56448 h 17.48511 z m 27.50992,-46.16072 c -6.99404,-0.46627 -14.22123,-0.46627 -21.44841,-0.46627 -6.99405,0 -14.22123,0.23314 -21.21528,0.46627 v 35.20337 H 39.525298 c 2.797619,16.78572 9.558531,32.63889 19.583333,45.69445 1.398809,-1.86508 3.497024,-3.03075 6.061508,-3.03075 h 41.731151 v 36.60218 c 6.76091,1.86508 13.98809,2.79762 21.21528,2.79762 v 0.23313 -0.23313 c 7.46031,0 14.45436,-0.93254 21.21527,-2.79762 V 185.11806 H 191.063 c 2.56448,0 4.66269,1.16567 6.0615,3.03075 9.79167,-13.05556 16.78572,-28.90873 19.58334,-45.69445 h -67.376 z m -33.57142,10.95734 9.09226,4.19643 3.26389,-9.3254 3.26389,9.55854 8.85912,-4.42957 -4.42956,9.09226 9.3254,3.26389 -9.55854,3.26389 4.42957,8.85913 -9.09226,-4.19643 -3.26389,9.3254 -3.49703,-9.55853 -8.39285,4.66269 4.19642,-9.09226 -9.32539,-3.26389 9.55853,-3.26389 c -0.23314,-0.23313 -4.42956,-9.09226 -4.42956,-9.09226 z m -31.939488,58.0506 -8.859127,-4.42957 -3.263888,9.55854 -3.263889,-9.3254 -9.092262,4.19643 4.429563,-8.85913 -9.558531,-3.26389 9.325396,-3.26389 -4.429563,-9.09226 8.859127,4.42956 3.263889,-9.55853 3.263889,9.3254 9.092261,-4.19643 -4.429563,8.85913 9.558532,3.49702 -9.325397,3.26389 z M 98.2753,175.55952 H 94.312004 V 172.7619 H 98.2753 Z m 0,-7.69345 h -3.963296 v -2.79762 H 98.2753 Z m 0,-7.69345 H 94.312004 V 157.375 H 98.2753 Z m 0,-7.92659 h -3.963296 v -2.79762 H 98.2753 Z m 2.09821,23.31349 v -27.97619 h 18.88393 c 3.96329,0 6.99405,3.03076 6.99405,6.99405 v 23.31349 c -1.39881,-1.63194 -3.26389,-2.56448 -5.36211,-2.56448 -0.46627,0.23313 -14.92063,0.23313 -20.51587,0.23313 z m 39.86607,36.36905 -9.09226,-4.19643 -3.26389,9.3254 -3.49702,-9.55853 -8.62599,4.42956 4.42956,-9.09226 -9.3254,-3.26389 9.55853,-3.49702 -4.66269,-8.85913 9.09226,4.19643 3.26389,-9.3254 3.49702,9.55853 8.85913,-4.42956 -4.19643,9.09226 9.3254,3.26389 -9.55854,3.49702 z m 31.70635,-60.38194 9.09226,4.19643 3.26389,-9.3254 3.49703,9.55853 8.85912,-4.42956 -4.42956,9.09226 9.3254,3.26389 -9.55853,3.26389 4.42956,8.85912 -9.09226,-4.19643 -3.26389,9.3254 -3.03076,-9.3254 -8.85912,4.42957 4.42956,-9.09226 -9.3254,-3.26389 9.55854,-3.49703 c -0.46627,0 -4.89584,-8.85912 -4.89584,-8.85912 z m -14.22123,-2.09822 h 3.9633 v 2.79762 h -3.9633 z m 0,7.69345 h 3.9633 v 2.79762 h -3.9633 z m 0,7.69346 h 3.9633 v 2.79762 h -3.9633 z m 0,7.92658 h 3.9633 v 2.79762 h -3.9633 z m -2.09821,-25.17857 v 27.97619 h -20.28274 c -2.09821,0 -4.19643,0.93254 -5.3621,2.56449 v -23.31349 c 0,-3.9633 3.03075,-6.99405 6.99404,-6.99405 h 1.16568 c -0.23314,-0.23314 17.48512,-0.23314 17.48512,-0.23314 z M 190.13046,28.684524 c -17.25199,-3.730159 -40.09921,-7.227183 -62.24703,-7.227183 -33.105156,0 -67.842259,8.159722 -83.229164,12.356151 -3.030754,0.699405 -5.362103,1.39881 -6.760913,1.865079 v 75.069449 c 10.024802,-1.63195 51.056548,-7.92659 89.990077,-7.92659 38.93353,0 79.96528,6.29464 89.99008,7.92659 V 35.445436 c -1.39881,-0.466269 -3.49702,-0.932539 -6.76091,-1.865079 -4.89583,-1.165675 -12.35615,-3.030754 -20.98214,-4.895833 z m -93.953377,7.926587 c 1.39881,-0.233135 -1.631944,-2.564484 0.233135,-2.564484 1.165675,0 5.362102,0 8.392862,1.631944 0.6994,0.233135 0.93253,-0.932539 2.09821,-1.631944 0,0 0.46627,-0.233135 0.6994,0 1.16568,0.699405 1.63195,1.865079 2.33135,1.631944 3.03076,-1.398809 7.22719,-1.398809 8.39286,-1.631944 2.09821,-0.233135 -0.93254,2.098214 0.23314,2.564484 6.99404,1.631944 12.12301,7.460317 12.12301,14.6875 0,2.098214 -0.46627,3.963294 -1.16567,5.828373 -0.46627,0.93254 -1.39881,-1.865079 -1.86508,-0.233135 -0.23314,2.797619 -0.93254,4.895833 -2.56449,7.926587 -1.39881,2.797619 -3.96329,-3.030754 -4.6627,-1.398809 -1.3988,2.797619 -4.42956,3.730159 -6.76091,4.196428 -0.23313,0 -0.46627,0 -0.23313,-0.233135 0,0 0.6994,-0.699404 0.6994,-1.631944 0,0 0,-0.233135 0.23314,-0.46627 1.63194,-0.699405 3.03075,-2.331349 3.26389,-4.196428 0.46627,-1.631945 1.16567,-4.196429 2.09821,-5.828373 1.86508,-3.263889 -0.46627,-7.460318 0.23313,-8.392857 1.39881,-0.93254 2.09822,-2.33135 2.09822,-3.963294 0,-2.564484 -2.09822,-4.895833 -4.89583,-4.895833 -1.39881,0 -2.79762,0.699404 -3.49703,1.631944 L 113.42907,39.875 c -0.46627,0.46627 -0.93254,0.93254 -1.16568,1.398809 -0.46627,0.46627 -0.23313,1.631945 0.46627,1.86508 3.26389,0.932539 5.36211,8.159722 3.9633,10.491071 -0.69941,1.165675 -2.33135,5.128968 -2.33135,6.061508 0,1.39881 -1.16568,2.564484 -2.56449,2.564484 -1.16567,0 -2.09821,-0.699405 -2.56448,-1.631944 0.93254,-0.46627 2.79762,-1.86508 2.79762,-3.030754 l -0.46627,-3.963294 c 1.63194,-0.233135 2.33135,-1.165674 2.56448,-2.564484 0.23314,0 0.23314,-0.233135 0.46627,-0.233135 0.46627,-0.46627 0.93254,-1.865079 -0.23313,-1.631944 -1.63195,0.233135 -3.49703,0.233135 -5.36211,0.699404 -0.23313,0 -0.46627,0.233135 -0.46627,0.46627 0,0.233135 0.93254,5.128969 1.16568,6.294643 0,0.233135 0,0.233135 -0.23314,0.233135 -0.6994,0 -2.09821,-0.233135 -2.33135,-0.233135 -0.23313,0 -1.63194,0 -2.33134,0.233135 0,0 -0.23314,0 -0.23314,-0.233135 0.23314,-1.165674 1.39881,-6.061508 1.39881,-6.061508 v -0.46627 c -0.23314,-0.466269 -5.12897,-0.932539 -5.82837,-0.932539 -0.23314,0 -0.46627,0 -0.69941,0.233135 -0.46627,0.699404 0.46627,1.398809 0.93254,1.631944 0.23314,1.39881 0.93254,2.331349 2.56449,2.564484 0,0.233135 -0.46627,3.963294 -0.46627,3.963294 0,1.398809 1.86508,2.331349 3.03075,3.030754 l 0.23313,0.233135 c -0.46626,0.932539 -1.3988,1.631944 -2.56448,1.631944 -1.39881,0 -2.56448,-1.165674 -2.56448,-2.564484 0,-0.93254 -1.86508,-5.128968 -2.33135,-6.294643 -1.398812,-2.564484 0.6994,-9.791666 4.19643,-10.491071 0.6994,-0.233135 1.16567,-1.165675 0.46627,-1.86508 -1.39881,-1.398809 -3.03076,-3.263888 -5.128972,-3.263888 -2.564485,0 -4.895834,2.098214 -4.895834,4.895833 0,3.030754 2.331349,3.497024 2.098215,4.429563 -0.93254,2.797619 -0.93254,5.828373 0.233134,7.926588 0.93254,1.398809 1.631945,3.963293 2.098215,5.595238 0.233135,1.865079 1.398812,3.263889 2.797622,4.196428 0.6994,0.46627 0.46627,0.93254 0.6994,1.631945 0.23314,0.233135 0.46627,0.46627 0.46627,0.699404 0.23314,0.233135 0,0.233135 -0.23313,0.233135 -2.33135,-0.233135 -5.595242,-1.165674 -6.994051,-4.196428 -0.699405,-1.631945 -3.263889,3.963293 -4.662699,1.398809 -1.631944,-2.797619 -2.331349,-5.128968 -2.797619,-7.926587 -0.466269,-1.631944 -1.398809,1.165675 -1.865079,0.233135 -0.699405,-1.865079 -1.165675,-3.730159 -1.165675,-5.828373 0.46627,-7.227183 5.595239,-13.055556 12.589286,-14.6875 z m 20.049607,4.895833 v -0.466269 c 0.23313,-0.233135 0.6994,-0.46627 1.16567,-0.46627 1.16568,0 2.09822,0.932539 2.09822,2.098214 0,0.699405 -0.23314,1.165675 -0.69941,1.631944 -0.23313,0.233135 -0.46627,0 -0.46627,-0.233135 -0.46627,-0.932539 -1.16567,-1.865079 -2.09821,-2.564484 z m -4.89584,24.012897 c -0.46627,1.39881 -2.33135,0.93254 -3.49702,1.631945 h -0.46627 c -0.93254,-0.93254 -2.79762,-0.46627 -3.49702,-1.86508 0,0 0,-0.46627 0.23313,-0.46627 1.39881,-0.233135 2.56448,-0.699404 3.49702,-1.865079 0,0 0.23314,-0.233135 0.46627,0 0.69941,0.93254 1.86508,1.39881 3.03076,1.631944 0.23313,0.46627 0.46627,0.699405 0.23313,0.93254 z M 97.109623,44.537698 c 0,0 -0.233135,0.233135 -0.46627,0 -0.46627,-0.46627 -0.699405,-0.932539 -0.699405,-1.631944 0,-1.165675 0.93254,-2.098214 2.098212,-2.098214 0.46627,0 1.16568,0.233135 1.39881,0.699404 0.23314,0.233135 0,0.46627 0,0.46627 -0.93254,0.46627 -1.865077,1.39881 -2.331347,2.564484 z M 77.992559,72.047619 c -1.398809,0 -2.098214,0.46627 -3.030754,1.165674 -0.699404,0.46627 -0.932539,-0.932539 0,-3.497023 0.699405,-2.098215 -3.497023,-3.263889 -4.429563,-2.33135 -1.39881,1.165675 -4.895833,3.263889 -8.392857,-0.466269 -0.699405,-0.699405 1.631944,-0.46627 1.631944,-1.165675 0.233135,-0.93254 1.165675,-1.398809 1.39881,-1.865079 0.233135,-0.233135 0.233135,-0.699405 -0.233135,-0.93254 -1.165675,-0.46627 -2.564484,-1.865079 -2.098214,-4.196429 0,-0.233134 -1.86508,-0.466269 -1.165675,-0.932539 3.263889,-3.030754 6.760913,-1.165675 8.159722,-0.233135 0.233135,0 0.699405,0.233135 0.699405,-0.233135 0,-0.93254 -0.46627,-1.631945 1.631944,-3.263889 0.46627,-0.233135 -1.165674,-1.631944 0,-1.631944 6.760913,1.631944 3.730159,8.625992 5.128969,10.024801 2.564484,2.331349 8.859127,4.196429 14.6875,5.362103 0.466269,0 2.331349,0.699405 2.797619,0.93254 4.662696,2.331349 7.693456,2.098214 10.257936,1.165675 0.93254,-0.233135 0.6994,0.699404 0.46627,0.932539 -9.325397,8.859127 -16.552579,6.760913 -19.117064,5.128969 -1.865079,-1.165675 -5.362103,-1.165675 -6.994047,1.165674 -0.233135,0.233135 -0.699405,0.46627 -0.93254,-0.233135 -0.46627,-1.631944 0,-2.797619 0.46627,-4.196428 0.233135,-0.46627 -0.46627,-0.699405 -0.93254,-0.699405 z m 89.756941,8.392857 c -1.16567,1.165675 -3.49702,2.331349 -6.99404,2.098214 -1.39881,0 -2.33135,0.46627 -2.56449,0.699405 -0.46627,0.46627 -0.46627,0.699405 -0.46627,0.93254 -0.23313,0.699404 0,1.631944 0.46627,2.098214 0.46627,0.46627 0.23314,0.93254 -0.46627,0.93254 -0.6994,0.233135 -1.39881,0.233135 -2.79762,-0.46627 -0.6994,-0.233135 -0.93254,0 -0.93254,0.46627 -0.23313,0.699404 0.23314,1.631944 1.16568,2.331349 0.46627,0.46627 0.46627,0.93254 -0.46627,1.165674 -1.39881,0.46627 -2.56449,-0.233134 -4.42957,-1.165674 -1.16567,-0.699405 -2.09821,-0.699405 -2.79761,0.233135 -0.46627,0.46627 -0.46627,0.932539 -0.23314,1.165674 0.69941,0.699405 1.16568,2.33135 -0.6994,4.662699 -0.69941,0.699405 -1.39881,-1.39881 -1.86508,-1.165675 -2.56449,1.165675 -4.6627,-0.46627 -5.59524,-1.398809 -0.23314,-0.233135 -0.46627,-0.233135 -0.93254,0 -1.39881,0.932539 -4.19643,2.331349 -5.12897,-0.233135 -0.23313,-0.46627 -1.63194,0.46627 -1.63194,-0.233135 0,-4.196429 3.73015,-4.895833 5.12896,-5.128968 0.46627,0 0.46627,-0.233135 0.23314,-0.699405 -0.69941,-0.93254 -1.39881,-2.098214 -0.93254,-3.263889 0.23313,-0.93254 -2.09821,-1.165675 -1.16568,-1.631944 4.89584,-2.33135 7.46032,2.098214 8.39286,2.564484 1.39881,0.699404 7.69345,-1.165675 8.39286,-4.662699 0.23313,-0.699405 -1.39881,-0.932539 -3.03075,-1.398809 -0.23314,0 -0.46627,-0.46627 0,-0.93254 3.73015,-2.797619 6.76091,-6.527778 13.75496,-7.227182 0.93254,0 1.16567,0.699404 1.16567,0.932539 0.23313,1.165675 0.46627,2.098214 0.93254,3.030754 0.93254,2.098214 2.09821,3.497024 3.49702,4.429564 0.46627,0.699404 0.23314,1.398809 0,1.865079 z m 28.6756,-2.331349 c 0.6994,0.233135 0.6994,0.699405 0.23313,1.165674 -0.46627,0.46627 -1.16567,0.699405 -2.79762,0.699405 -0.6994,0 -0.6994,0.46627 -0.6994,0.699405 0,0.699405 0.93254,1.398809 2.09821,1.398809 0.69941,0.233135 0.69941,0.699405 0.23314,1.165675 -0.93254,0.93254 -2.33135,0.93254 -4.6627,0.93254 -2.09821,0 -3.73016,2.564484 -2.56448,3.497024 0.93254,0.699404 2.56448,2.331349 1.16567,6.760912 -0.46627,1.39881 -1.16567,-1.165674 -1.86508,-0.699405 -1.86508,1.165675 -3.26389,-0.233134 -4.19643,-1.165674 -0.23313,-0.46627 -0.6994,-0.46627 -0.93254,0 -0.6994,1.165674 -2.56448,3.497024 -6.29464,1.398809 -0.6994,-0.466269 -2.56448,1.165675 -2.56448,0.46627 -0.69941,-3.030754 0.93254,-4.662698 2.09821,-5.595238 0.23314,0 0.69941,-0.699405 -0.23313,-0.699405 -1.16568,0 -2.79762,-0.466269 -3.03076,-2.098214 0,-0.233135 -1.63194,-0.233135 -1.63194,-0.699405 0.46627,-2.098214 5.12897,-3.730158 8.39285,-1.631944 2.79762,1.865079 6.29465,-4.429564 3.73016,-7.227183 -1.86508,-2.098214 -12.35615,3.730159 -15.85317,-3.730158 -1.39881,-3.030754 0.46627,-5.595238 -1.16568,-5.828373 -1.39881,-0.233135 -8.15972,-1.631945 -15.3869,4.196428 -12.35615,10.024802 -25.87798,4.429564 -29.14187,2.331349 -0.46627,-0.233135 -0.93254,0.233135 -0.6994,0.699405 0.46627,1.39881 0.23313,2.564484 -0.23314,3.497024 -1.3988,1.865079 -5.82837,3.963294 -6.52777,4.196429 -5.12897,1.631944 -4.6627,5.595238 -4.19643,7.227182 0.23313,0.46627 0,0.93254 -0.69941,0.699405 -1.63194,-0.233135 -4.89583,-1.165675 -6.0615,-4.429564 -0.23314,-0.46627 -0.46627,-0.46627 -0.93254,0 -1.86508,1.39881 -1.16568,3.497024 -0.69941,4.196429 0.23314,0.46627 0,0.699405 -0.46627,0.699405 -1.86508,0.233135 -3.030752,-1.86508 -4.662697,-1.631945 -0.93254,0 -2.098214,0.93254 -2.797619,1.39881 -0.233135,0.233135 -0.46627,0.699404 -0.233135,1.165674 1.86508,5.828373 -1.165674,6.061508 -1.398809,5.828373 -0.233135,-0.233135 0,-1.165674 -0.93254,-1.165674 -3.030754,0.233135 -3.963294,-1.86508 -4.196429,-3.497024 0,-0.46627 -0.233135,-0.699405 -0.699404,-0.46627 -1.165675,0.93254 -4.196429,2.564484 -6.061508,0 -0.233135,-0.233135 -1.165675,0 -1.631945,0.233135 -0.46627,0.233135 -0.46627,-0.46627 -0.46627,-0.699405 0.233135,-3.263889 2.564485,-4.895833 3.730159,-5.362103 0.46627,-0.233135 0.46627,-0.46627 0.233135,-0.699405 -0.93254,-0.699404 -2.797619,-2.331349 -2.098214,-3.963293 0,-0.233135 -1.39881,-0.93254 -1.165675,-1.165675 3.730159,-2.564484 8.159722,1.631945 8.859127,2.098214 0.699405,0.46627 3.963294,0.699405 12.356154,-4.196428 5.3621,-3.030754 8.15972,-5.362103 9.55853,-7.227183 0.23313,-0.233135 0.46627,-0.699404 1.16567,-0.699404 3.26389,0 6.76092,-0.699405 9.3254,-2.79762 0.46627,-0.466269 0.93254,-0.233134 1.16567,0 4.89584,3.263889 7.22719,-3.963293 8.15973,-7.460317 0.23313,-0.699405 0.23313,-1.165675 0.93254,-1.398809 17.71825,0.932539 51.05654,0.699404 51.05654,0.699404 0,0 4.42957,0.233135 4.19643,-2.331349 -0.23313,-4.429563 -18.65079,-4.196428 -32.17262,-2.331349 -4.89583,0.699405 -12.12301,1.165674 -16.31944,-0.46627 -1.86508,-0.699405 -3.26389,-1.865079 -3.96329,-3.263889 -0.93254,-1.865079 -0.69941,-2.797619 -0.46627,-3.963293 0.23313,-0.93254 0.6994,-1.631945 1.16567,-2.564485 3.49702,-5.362103 11.65675,-5.828373 13.9881,-5.828373 0.46627,0 0.6994,-0.233135 0.93254,-0.466269 0.23313,-1.165675 1.16567,-4.196429 4.66269,-4.196429 0.93254,0 1.86508,-0.46627 2.56449,-0.699405 0.46627,-0.233135 0.6994,0 0.46627,0.233135 0,0.46627 -0.23314,0.93254 -0.69941,1.39881 -2.33135,2.098214 -2.09821,3.030754 -1.63194,3.263889 0.23313,0.233134 0.46627,0 0.46627,0 7.22718,-6.294643 11.42361,-2.098215 12.58928,-0.699405 0.23314,0.233135 0.23314,0.699405 -0.23313,0.699405 -4.89583,1.165674 -6.76091,5.362103 -16.78572,4.662698 -1.16567,0 -9.32539,-0.46627 -11.88988,3.263889 -1.39881,2.098214 -0.46627,4.196428 3.9633,5.128968 3.26389,0.699405 11.19047,-0.46627 14.92063,-0.699405 3.49703,-0.233135 19.3502,-2.331349 27.50992,0 3.49703,0.93254 8.62599,3.730159 7.46032,9.092262 -0.6994,3.263889 -3.96329,4.662699 -3.96329,4.662699 0,0 -9.09227,6.294642 7.22718,6.527777 5.12897,0 0,4.196429 -0.23314,5.362104 0,0.932539 0.93254,1.631944 1.63195,2.098214 z M 166.81696,42.905754 c -0.46627,0 -1.16567,0.233135 -1.86508,0.699405 -1.39881,0.932539 -7.22718,3.497023 -9.09226,0.466269 0,0 4.19643,-0.233134 6.76092,-2.564484 0,0 2.79761,-0.932539 4.66269,0.46627 -0.23313,0.46627 0,0.93254 -0.46627,0.93254 z M 128.11657,10.5 C 72.863591,10.5 17.84375,25.1875 17.84375,25.1875 V 98.625 c 0,66.21032 47.326389,134.98512 110.03968,146.875 65.04464,-12.82242 110.27282,-80.66468 110.27282,-146.875 V 25.1875 c 0,0 -45.92758,-14.6875 -110.03968,-14.6875 z m 93.72023,114.93552 c 0,53.85416 -41.03174,102.8125 -93.72023,102.8125 -52.92163,0 -93.953376,-48.95834 -93.953376,-102.8125 V 32.647817 l 1.39881,-0.466269 c 0,0 47.559524,-14.6875 92.321426,-14.6875 44.76191,0 92.32143,14.6875 92.32143,14.6875 l 1.39881,0.466269 v 92.787703 z"
       id="path399"
       style="stroke-width:2.33135" /></g><style
     id="style391">.st0{fill:#363636}</style></svg>
