<?xml version="1.0" encoding="UTF-8" standalone="no"?>
<!-- Created with Inkscape (http://www.inkscape.org/) -->

<svg
   width="256.0px"
   height="256.0px"
   viewBox="0 0 256.0 256.0"
   version="1.1"
   id="SVGRoot"
   sodipodi:docname="email.svg"
   inkscape:version="1.2.2 (b0a8486541, 2022-12-01)"
   xml:space="preserve"
   xmlns:inkscape="http://www.inkscape.org/namespaces/inkscape"
   xmlns:sodipodi="http://sodipodi.sourceforge.net/DTD/sodipodi-0.dtd"
   xmlns="http://www.w3.org/2000/svg"
   xmlns:svg="http://www.w3.org/2000/svg"><sodipodi:namedview
     id="namedview137"
     pagecolor="#ffffff"
     bordercolor="#666666"
     borderopacity="1.0"
     inkscape:showpageshadow="2"
     inkscape:pageopacity="0.0"
     inkscape:pagecheckerboard="0"
     inkscape:deskcolor="#d1d1d1"
     inkscape:document-units="px"
     showgrid="true"
     inkscape:zoom="1.1893044"
     inkscape:cx="143.36111"
     inkscape:cy="219.45601"
     inkscape:window-width="2560"
     inkscape:window-height="1371"
     inkscape:window-x="1920"
     inkscape:window-y="32"
     inkscape:window-maximized="1"
     inkscape:current-layer="layer2"><inkscape:grid
       type="xygrid"
       id="grid260" /></sodipodi:namedview><defs
     id="defs132"><rect
       x="10"
       y="10"
       width="250"
       height="250"
       id="rect352" /><rect
       x="0"
       y="5"
       width="255"
       height="250"
       id="rect2095" /><clipPath
       clipPathUnits="userSpaceOnUse"
       id="clipPath1273"><path
         id="path1275"
         style="fill:#008080;fill-opacity:0.535853;stroke:#1c7c2a;stroke-width:10;stroke-linecap:round;stroke-opacity:0.519252"
         d="m 206.49609,85 a 91.372078,66.372078 0 0 1 4.87696,21.37305 A 91.372078,66.372078 0 0 1 120,172.74609 91.372078,66.372078 0 0 1 80.697266,166.14062 L 70,169.70703 V 255 H 260 V 85 Z" /></clipPath><clipPath
       clipPathUnits="userSpaceOnUse"
       id="clipPath1277"><path
         id="path1279"
         style="fill:#008080;fill-opacity:0.535853;stroke:#1c7c2a;stroke-width:10;stroke-linecap:round;stroke-opacity:0.519252"
         d="m 206.49609,85 a 91.372078,66.372078 0 0 1 4.87696,21.37305 A 91.372078,66.372078 0 0 1 120,172.74609 91.372078,66.372078 0 0 1 80.697266,166.14062 L 70,169.70703 V 255 H 260 V 85 Z" /></clipPath><rect
       x="0"
       y="5"
       width="255"
       height="250"
       id="rect3390" /><style
       id="style3641">.cls-1{fill:#0ea800;}.cls-2{fill:#005837;}</style></defs><g
     inkscape:label="Layer 1"
     inkscape:groupmode="layer"
     id="layer1" /><g
     inkscape:groupmode="layer"
     id="layer2"
     inkscape:label="Layer 2"><g
       aria-label="@"
       id="g413"
       style="font-weight:bold;font-size:64px;line-height:1.16em;font-family:'Britannian Runes';-inkscape-font-specification:'Britannian Runes Bold';text-align:center;text-anchor:middle;white-space:pre;shape-inside:url(#rect352);fill:#cccccc;stroke-width:3.6;stroke-linecap:round;stroke-linejoin:round"
       transform="matrix(3.7347871,0,0,3.7347871,-373.01378,-63.43325)"><path
         d="m 160.50402,53.714873 q 0,2.944 -0.704,5.824 -0.704,2.88 -2.176,5.248 -1.408,2.368 -3.584,3.776 -2.176,1.344 -5.12,1.344 -2.368,0 -4.16,-1.088 -1.792,-1.152 -2.496,-2.944 h -0.512 q -1.28,1.6 -3.456,2.816 -2.112,1.216 -5.12,1.216 -5.696,0 -8.832,-3.392 -3.072,-3.456 -3.072,-9.024 0,-4.288 1.856,-7.552 1.856,-3.328 5.248,-5.184 3.392,-1.92 8,-1.92 3.008,0 6.208,0.576 3.264,0.512 5.056,1.152 l -0.64,13.12 q -0.064,0.64 -0.064,1.344 0,0.64 0,0.832 0,2.624 0.704,3.52 0.768,0.832 1.664,0.832 1.472,0 2.432,-1.408 0.96,-1.472 1.408,-3.84 0.512,-2.432 0.512,-5.312 0,-5.376 -2.176,-9.088 -2.176,-3.776 -5.952,-5.76 -3.712,-1.984 -8.512,-1.984 -6.72,0 -11.328,2.816 -4.544,2.752 -6.912,7.552 -2.368,4.8 -2.368,11.008 0,8.64 4.608,13.248 4.672,4.608 13.376,4.608 3.712,0 7.744,-0.832 4.032,-0.832 7.36,-2.048 v 6.016 q -3.072,1.28 -6.848,2.048 -3.776,0.768 -8,0.768 -7.936,0 -13.568,-2.816 -5.632,-2.816 -8.64,-8.064 -2.944,-5.312 -2.944,-12.736 0,-5.824 1.92,-10.816 1.92,-4.992 5.504,-8.704 3.648,-3.776 8.704,-5.824 5.056,-2.112 11.328,-2.112 6.848,0 12.16,2.752 5.312,2.752 8.32,7.872 3.072,5.12 3.072,12.16 z m -32,3.904 q 0,3.52 1.472,5.056 1.472,1.536 3.904,1.536 3.2,0 4.48,-2.304 1.344,-2.368 1.6,-6.144 l 0.384,-6.912 q -0.704,-0.128 -1.6,-0.192 -0.896,-0.128 -1.984,-0.128 -3.008,0 -4.864,1.344 -1.792,1.28 -2.624,3.392 -0.768,2.048 -0.768,4.352 z"
         id="path411"
         style="fill:#cccccc" /></g><g
       aria-label="@"
       id="text350"
       style="font-weight:bold;font-size:64px;line-height:1.16em;font-family:'Britannian Runes';-inkscape-font-specification:'Britannian Runes Bold';text-align:center;text-anchor:middle;white-space:pre;shape-inside:url(#rect352);stroke-width:3.6;stroke-linecap:round;stroke-linejoin:round"
       transform="matrix(3.7347871,0,0,3.7347871,-379.01378,-69.43325)"><path
         d="m 160.50402,53.714873 q 0,2.944 -0.704,5.824 -0.704,2.88 -2.176,5.248 -1.408,2.368 -3.584,3.776 -2.176,1.344 -5.12,1.344 -2.368,0 -4.16,-1.088 -1.792,-1.152 -2.496,-2.944 h -0.512 q -1.28,1.6 -3.456,2.816 -2.112,1.216 -5.12,1.216 -5.696,0 -8.832,-3.392 -3.072,-3.456 -3.072,-9.024 0,-4.288 1.856,-7.552 1.856,-3.328 5.248,-5.184 3.392,-1.92 8,-1.92 3.008,0 6.208,0.576 3.264,0.512 5.056,1.152 l -0.64,13.12 q -0.064,0.64 -0.064,1.344 0,0.64 0,0.832 0,2.624 0.704,3.52 0.768,0.832 1.664,0.832 1.472,0 2.432,-1.408 0.96,-1.472 1.408,-3.84 0.512,-2.432 0.512,-5.312 0,-5.376 -2.176,-9.088 -2.176,-3.776 -5.952,-5.76 -3.712,-1.984 -8.512,-1.984 -6.72,0 -11.328,2.816 -4.544,2.752 -6.912,7.552 -2.368,4.8 -2.368,11.008 0,8.64 4.608,13.248 4.672,4.608 13.376,4.608 3.712,0 7.744,-0.832 4.032,-0.832 7.36,-2.048 v 6.016 q -3.072,1.28 -6.848,2.048 -3.776,0.768 -8,0.768 -7.936,0 -13.568,-2.816 -5.632,-2.816 -8.64,-8.064 -2.944,-5.312 -2.944,-12.736 0,-5.824 1.92,-10.816 1.92,-4.992 5.504,-8.704 3.648,-3.776 8.704,-5.824 5.056,-2.112 11.328,-2.112 6.848,0 12.16,2.752 5.312,2.752 8.32,7.872 3.072,5.12 3.072,12.16 z m -32,3.904 q 0,3.52 1.472,5.056 1.472,1.536 3.904,1.536 3.2,0 4.48,-2.304 1.344,-2.368 1.6,-6.144 l 0.384,-6.912 q -0.704,-0.128 -1.6,-0.192 -0.896,-0.128 -1.984,-0.128 -3.008,0 -4.864,1.344 -1.792,1.28 -2.624,3.392 -0.768,2.048 -0.768,4.352 z"
         id="path408" /></g></g><style
     id="style391">.st0{fill:#363636}</style></svg>
