<?xml version="1.0" ?><svg enable-background="new -136.179 82.914 342.459 396.271" id="Layer_1" version="1.1" viewBox="-136.179 82.914 342.459 396.271" xml:space="preserve" xmlns="http://www.w3.org/2000/svg" xmlns:xlink="http://www.w3.org/1999/xlink"><g><g id="_x32_7_x2C__PDF_x2C__File_type_x2C__Adobe"><g><g><g><g><path d="M-77,159.801c5,0,8.965,0.06,13.965-0.94c3-1,6.994,0.342,10.994,1.342c1,0,0.963,1.889,0.963,2.889        c6,4,12.08,12.91,6.08,18.91c-3.928,2.946-8.148,4.691-12.44,5.59c-4.449,0.932-8.813,0.829-13.394-0.698        c3-1,2.529,2.166,3.529,3.166c0,4,3.61,9.124,0.61,13.124c0,1-5.739,0.977-5.739-0.023        c-2.963-6.914-4.032-14.206-4.417-21.366c-0.396-7.339,0.041-14.687-0.466-21.773C-77.321,159.923-77,159.801-77,159.801z         M-66.801,179c0,3,1.801-1.143,2.801,0.857c3-2,8.202-0.807,10.202-3.807c-1-1-2.081-1.05-2.081-5.05        c0-5-7.117-2.999-11.117-2.999c3,4-1.232,7.068-0.232,11.068C-67.201,179.164-66.801,179-66.801,179z"/></g><g><path d="M-40,161.186c8,0,16-0.351,24-0.351c6,0,12.173,3.095,14.173,8.095c2.027,5.068,2.756,11.171,1.811,16.602        c-0.92,5.285-3.378,10.416-9.79,12.881c-1.037,0.485-1.155,0.625-1.155,1.625c-2,1-4.075,1.853-6.075,2.853        c-4,1-9.079-2.084-13.079-0.084c-1,1-2.824-0.053-3.824-0.053c-3-1-3.986-5.764-3.986-8.764        c-0.997-5.483-1.731-10.95-1.982-16.433c-0.252-5.517-0.354-11.041-0.354-16.558C-40.261,160.907-40,161.186-40,161.186z         M-30.09,196.163c4.471,2.484,9.692,1.948,13.56-0.262c3.917-2.239,6.351-6.346,5.345-11.881c0-4,2.522-7.146,1.522-10.146        c-2-5-7.272-7.421-13.272-8.421c-1.106,0.158-0.104,0.973-1.034,1.593c-2,0-4.03,0.069-6.03,0.069        c3,0-0.224,1.886-0.224,2.886c0,9-1.027,17.028-1.027,26.028c0.055,0.497,0.746-0.042,1.238,0.046        C-29.922,196.091-30.09,196.163-30.09,196.163z"/></g><g><path d="M5.943,160.809c4.987-1.496,9.786-1.091,14.524-0.593c4.762,0.5,9.329,1.56,14.342,1.058c0,4-1.824,7.602-3.824,7.602        c-6,1-13.147-0.55-19.147-1.55c4,0,6.011,4.598,5.011,7.598c-1,1-1.848,1.927-2.848,2.927c4-1,9.131,2.543,13.131,0.543        c2,0,4.158-1.49,5.158,0.51c0,1-0.704,3.304-0.704,4.304c1,1,2.468,2.521,5.468,1.521c-8,0-15.884,3.017-23.884-0.983        c2,0,2.167,2.158,3.167,3.158c1,6-3.604,11.042-0.604,17.042c-4-1-8.345-3.024-12.345-1.024c3-7,2.221-14.04,4.221-21.04        c1-3,0.561-6.827,1.561-9.827S7.816,166,7.816,163c0-1-0.922-0.906-1.922-1.906C5.829,161.019,5.943,160.809,5.943,160.809z"/></g></g><g><path d="M135,370.426c1,0,1.966-0.418,1.966-1.418c-2-8-11.966-10.521-18.966-10.521c-6.925,0-13.841-1.703-20.645-1.84       c-6.951-0.14-13.9,0.739-20.47,3.266c0,6,2.577,2.459,1.433-0.057c-6-5-8.085-12.991-12.085-18.991       c-3-6-5.649-13.96-3.649-20.96c1-6,3.505-11.854,7.505-17.854c0-1-0.097-2.055-0.097-3.055c2-3,3.148-7.053,2.148-10.053       c-3-7-4.25-14.845-9.25-20.845c-4-4-8.961-5.192-13.961-2.192c-3,3-3.58,7.146-4.58,11.146       c-0.502,6.03-1.021,11.799-0.39,17.577c0.626,5.723,2.365,11.32,3.36,17.291c1,2,0.704,4.068,2.704,5.068       c-1,1-2.305-1.082-2.305,0.918c-2,4-3.694,9.106-5.694,13.106c-3,6-7.192,10.89-12.192,14.89c0,4.54-0.77,9.212-2.548,13.495       c-1.748,4.208-4.184,8.355-7.157,11.824c-6.55,2.016-12.988,4.29-18.902,7.577c-5.824,3.236-11.538,6.988-16.5,11.95       c-6,7-6.429,17.152-3.429,25.152c1,4,6.749,3.583,11.749,3.583c5.411-0.983,10.056-3.655,14.015-6.702       c4.089-3.146,7.339-7.244,9.88-11.816c2.973-4.955,4.56-10.551,6.664-15.88c2.142-5.425,4.972-10.3,8.503-14.84       c9-1,16.938-1.85,25.938-2.85c8-1,16.116-3.721,24.116-2.721c3.366,4.712,7.981,9.148,13.268,12.533       c5.188,3.32,10.81,6.301,16.755,7.106c5.996,0.812,12.369,0.06,18.032-2.938c3-2,7.354-5.206,6.354-10.206       c-1,0-1.08-0.171-1.08-1.171C135.491,369.787,135,370.426,135,370.426z M-16.581,409.93c-1-6,3.559-10.956,7.559-14.956       c4.422-2.948,8.353-6.997,12.767-9.971c4.569-3.078,10.107-5.184,15.703-5.184c-6-1-7.562,7.094-10.562,11.094       c-3.394,4.363-6.693,9.749-10.528,13.842c-4.076,4.35-8.573,7.05-15.271,4.989C-17.115,409.676-16.581,409.93-16.581,409.93z        M43.354,281.236c2-3,4.612-6.241,4.612-10.241c1-3,4.69-2.339,6.69-3.339c-1,0-1.139,0.344-2.139,0.344       c1,5,2.34,11.022,3.34,16.021c1,8-3.208,14.979-3.208,22.979c0,2,2.494,2.771,3.494,3.771       c-4.98-3.486-7.296-8.385-8.546-13.861c-1.258-5.52-1.499-11.446-4.511-15.963C42.976,280.765,43.354,281.236,43.354,281.236z        M54.745,360.659c-4,3-9.729,4.372-14.729,6.372c-0.447,0.224,1.484,0.455,0.984,0.455c-2,0-4.555-1.302-3.555-2.302       c1.531-5.102,4.038-10.051,7.109-14.897c2.948-4.653,6.31-9.232,8.759-14.131c1-2,3.495-2.965,6.495-2.965       c-1,2,1.61,3.725,1.61,5.725c1,3,3.489,6.13,4.489,9.13c3,5,9.094,8.963,12.094,13.963c-7-4-14.996-1.16-22.996-1.16       C54.794,360.84,54.745,360.659,54.745,360.659z M83.883,362.409c4.646,1.327,10.066,0.78,15.447,0.523       c5.246-0.25,10.63-1.094,15.479-0.45c5.17,0.686,9.261,3.058,12.709,7.54c-3,5-7.487,7.837-13.487,6.837       c-5.457-1.488-10.798-3.4-15.888-5.747c-5.172-2.384-9.934-5.284-13.965-9.315C84.018,361.656,83.883,362.409,83.883,362.409z"/></g><path d="M202.29,143.608c-0.465-0.465-0.975-0.883-1.521-1.248c-1.075-0.717-2.813-1.61-5.043-1.833      c-4.412-3.108-8.412-6.06-11.985-9.217c-3.502-3.095-6.765-6.412-10.219-9.924c-1.21-1.23-2.418-2.458-3.636-3.676l-0.479-0.479      c-4.476-4.474-9.103-9.101-13.761-13.693c-3.6-3.549-7.249-6.965-11.061-10.352c-0.125-0.812-0.273-1.626-0.454-2.44      c-1.198-5.392-6.541-8.792-11.932-7.592c-1.812,0.403-3.391,1.281-4.654,2.465c-1.018,0.103-1.901,0.254-2.575,0.372      c-0.362,0.063-0.849,0.148-1.064,0.172c-0.689,0.008-1.377,0.088-2.051,0.238c-3.102,0.689-6.486,0.984-11.313,0.986      c-0.009,0-0.017,0-0.025,0c-2.123,0-4.249-0.055-6.5-0.112c-2.252-0.058-4.58-0.118-6.934-0.119      c-2.67-0.043-5.341-0.074-8.012-0.104c-3.394-0.039-6.787-0.078-10.182-0.144c-3.333-0.064-6.665-0.146-9.997-0.229      c-2.761-0.068-5.521-0.137-8.282-0.194c-2.974-0.063-6.049-0.193-9.022-0.318c-3.019-0.128-6.14-0.26-9.263-0.328      c-3.183-0.069-6.354-0.055-9.422-0.042c-3.067,0.013-5.967,0.026-8.886-0.037c-2.943-0.063-5.885-0.164-8.827-0.264      c-3.16-0.107-6.319-0.214-9.479-0.279c-2.873-0.059-5.834-0.167-8.698-0.272c-3.137-0.115-6.38-0.234-9.618-0.293      c-2.838-0.052-5.651-0.168-8.628-0.292c-3.157-0.131-6.421-0.266-9.698-0.316c-3.5-0.053-7.001-0.073-10.502-0.092      c-2.615-0.014-5.229-0.028-7.843-0.058c-2.519-0.028-5.037-0.068-7.555-0.109c-3.599-0.058-7.198-0.116-10.798-0.139      c-3.497-0.018-6.854,0.214-10.104,0.442c-1.862,0.13-3.658,0.256-5.404,0.33c-0.462-0.137-0.939-0.243-1.429-0.313      c-5-0.725-9.746,2.396-11.075,7.267c-2.001,7.341-1.613,14.307-0.894,20.743l0.1,0.886c0.327,2.901,0.635,5.701,0.662,8.408      c-0.561,0.003-1.132,0.003-1.724,0.002c-3.71-0.006-7.875-0.021-12.55,0.977c-1.736-0.017-4.158-0.102-5.459-0.535      c-2.594-0.865-5.43-0.63-7.846,0.651c-2.417,1.281-4.203,3.496-4.943,6.128c-0.43,1.529-0.893,3.031-1.352,4.526      c-1.222,3.975-2.485,8.085-3.238,12.688c-0.671,4.101-0.822,8.035-0.968,11.839c-0.079,2.051-0.153,3.988-0.305,5.869      c-0.161,1.985-0.395,4-0.643,6.134c-0.419,3.604-0.852,7.332-0.962,11.249c-0.099,3.518-0.012,6.974,0.072,10.316      c0.06,2.378,0.116,4.625,0.109,6.869c-0.008,2.584-0.143,5.213-0.285,7.996c-0.148,2.886-0.301,5.871-0.311,8.925      c-0.009,2.851,0.133,5.515,0.271,8.091c0.152,2.84,0.296,5.523,0.218,8.178c-0.093,3.167,1.32,6.19,3.81,8.15      c1.783,1.404,3.967,2.143,6.187,2.143c0.879,0,1.763-0.116,2.63-0.352c3.624-0.988,7.571-1.386,11.75-1.807      c1.09-0.11,2.189-0.221,3.298-0.342c4.694-0.516,9.654-0.772,15.099-0.799c-0.115,1.44-0.223,2.872-0.352,4.331      c-0.239,2.703-0.572,5.403-0.924,8.262c-0.411,3.334-0.835,6.783-1.109,10.301c-0.195,2.503-0.414,5.004-0.633,7.506      c-0.316,3.619-0.644,7.36-0.896,11.095c-0.238,3.51-0.273,6.947-0.308,10.269c-0.03,2.921-0.059,5.679-0.217,8.39      c-0.156,2.668-0.495,5.407-0.853,8.309c-0.409,3.301-0.831,6.714-1.007,10.268c-0.267,5.39-0.523,11.136-0.832,18.631      c-0.185,4.481-0.329,8.967-0.473,13.449l-0.168,5.181c-0.084,2.498-0.184,4.996-0.284,7.494      c-0.146,3.638-0.296,7.399-0.395,11.133c-0.091,3.448-0.015,6.833,0.059,10.106c0.067,2.962,0.13,5.759,0.074,8.528      c-0.051,2.565-0.119,5.13-0.186,7.693c-0.095,3.642-0.19,7.282-0.242,10.923l-0.054,3.755c-0.072,4.956-0.144,9.91-0.188,14.86      c-0.03,3.406,0.006,6.819,0.042,10.119c0.031,2.831,0.062,5.662,0.05,8.491c-0.012,2.847-0.079,5.811-0.144,8.677      c-0.074,3.279-0.15,6.67-0.15,10.031c0,2.671,1.068,5.23,2.967,7.109c1.899,1.878,4.461,2.931,7.141,2.89l4.862-0.057      c4.246-0.053,8.515-0.105,12.724-0.114c3.275,0.004,6.64,0.044,9.896,0.092c2.531,0.038,5.062,0.076,7.596,0.09      c3.202,0.017,6.496,0.086,9.682,0.154c2.606,0.056,5.212,0.11,7.818,0.14l3.862,0.043c4.552,0.05,9.104,0.1,13.656,0.173      c3.098,0.049,6.137-0.042,9.074-0.129c2.944-0.087,5.724-0.17,8.463-0.117c2.703,0.053,5.45,0.245,8.357,0.449      c2.965,0.209,6.031,0.424,9.172,0.491c3.249,0.07,6.392-0.071,9.43-0.209c2.85-0.128,5.541-0.248,8.14-0.192      c2.659,0.06,5.364,0.258,8.228,0.469c3.014,0.221,6.13,0.45,9.328,0.519c2.738,0.059,5.464,0.191,8.349,0.333      c2.999,0.147,6.1,0.299,9.226,0.359c3.226,0.063,6.451,0.089,9.678,0.116c2.641,0.021,5.281,0.043,7.919,0.086      c3.558,0.058,7.115,0.085,10.674,0.111c2.313,0.018,4.626,0.036,6.938,0.062c3.353,0.046,6.572-0.154,9.689-0.343      c2.779-0.167,5.395-0.333,7.942-0.311c2.604,0.014,5.232,0.134,8.015,0.263c3.112,0.143,6.353,0.273,9.621,0.284      c2.588-0.002,5.191,0.072,7.943,0.154c2.697,0.08,5.473,0.163,8.289,0.163c0.473,0,0.946-0.002,1.42-0.008      c3.34-0.035,6.604-0.237,9.761-0.433c2.741-0.17,5.331-0.33,7.896-0.383c2.513-0.052,5.054-0.051,7.749-0.048      c3.327,0.001,6.768,0.006,10.165-0.103c2.696-0.086,5.244-1.258,7.064-3.25c1.819-1.991,2.758-4.635,2.601-7.328      c-0.167-2.851-0.424-5.713-0.673-8.48c-0.306-3.393-0.594-6.597-0.722-9.714c-0.118-2.901-0.04-5.887,0.042-9.047      c0.076-2.909,0.154-5.917,0.077-8.996c-0.065-2.611-0.172-5.221-0.279-7.831c-0.145-3.523-0.282-6.851-0.317-10.203      c-0.042-4.062-0.018-8.232,0.007-12.266c0.012-1.931,0.022-3.861,0.027-5.792c0.006-2.535-0.016-5.069-0.037-7.603      c-0.03-3.451-0.061-7.019-0.013-10.472c0.035-2.502,0.047-5.004,0.06-7.506c0.017-3.484,0.034-7.088,0.117-10.586      c0.064-2.738,0.091-5.479,0.116-8.218c0.03-3.262,0.063-6.634,0.165-9.89c0.093-2.908,0.326-5.845,0.574-8.953      c0.235-2.961,0.479-6.023,0.6-9.144c0.136-3.521,0.308-7.038,0.479-10.556c0.123-2.52,0.247-5.039,0.356-7.561l0.059-1.346      c0.245-5.596,0.489-11.191,0.755-16.79c0.146-3.087,0.215-6.168,0.283-9.147c0.07-3.115,0.138-6.057,0.283-9.016      c0.152-3.095,0.243-6.196,0.332-9.194c0.087-2.96,0.178-6.021,0.325-8.98c0.137-2.744,0.428-5.533,0.735-8.487      c0.325-3.117,0.661-6.341,0.823-9.657c0.165-3.389,0.107-6.676,0.052-9.855c-0.051-2.929-0.1-5.696,0.024-8.378      c0.128-2.764,0.356-5.533,0.599-8.465c0.261-3.153,0.53-6.413,0.669-9.725c0.147-3.505,0.247-7.035,0.343-10.448      c0.073-2.597,0.146-5.194,0.24-7.789c0.132-3.621,0.212-7.265,0.289-10.79c0.055-2.488,0.108-4.976,0.182-7.463      c0.003-0.097,0.004-0.192,0.004-0.289c0.002-0.237,0.092-0.896,0.157-1.376C206.365,154.669,207.199,148.518,202.29,143.608z       M155.746,131.854c1.178,1.178,2.347,2.367,3.518,3.558c1.085,1.103,2.188,2.218,3.303,3.336      c-1.571-0.071-3.121-0.162-4.679-0.303c-0.301-0.027-0.604-0.041-0.905-0.041c-1.194,0-2.715-0.234-4.324-0.483      c-2.022-0.312-4.366-0.673-6.932-0.708c-0.375-2.098-0.56-4.372-0.674-6.925l-0.12-2.604c-0.107-2.273-0.209-4.58-0.279-6.88      c3.581,3.55,7.147,7.106,10.613,10.572L155.746,131.854z M-110.196,219.224c-1.05,0.115-2.09,0.22-3.122,0.324      c-0.905,0.091-1.816,0.183-2.733,0.281c-0.077-1.599-0.133-3.156-0.127-4.719c0.009-2.575,0.143-5.194,0.285-7.968      c0.148-2.897,0.302-5.894,0.311-8.959c0.008-2.525-0.055-5.02-0.116-7.432c-0.081-3.221-0.158-6.264-0.073-9.248      c0.086-3.043,0.451-6.183,0.836-9.507c0.257-2.21,0.522-4.495,0.711-6.829c0.187-2.305,0.272-4.547,0.355-6.716      c0.128-3.342,0.249-6.499,0.72-9.374c0.361-2.205,0.941-4.427,1.611-6.714c1.757,0.044,3.422,0.132,5.034-0.271      c2.794-0.699,5.652-0.688,8.953-0.682c1.521,0.006,3.119,0.01,4.782-0.062c2.17,1.192,4.742,1.578,7.234,0.956      c4.664-1.166,9.5-0.954,14.619-0.733c1.143,0.049,2.286,0.128,3.432,0.206c4.671,0.315,9.922,0.671,15.68-0.549      c1.559-0.02,3.086-0.081,4.595-0.155c0.64,0.043,1.273,0.097,1.918,0.131c3.229,0.169,6.393,0.184,9.454,0.197      c3.06,0.014,5.949,0.026,8.781,0.186c3.33,0.189,6.675,0.326,9.91,0.458c2.792,0.115,5.584,0.229,8.373,0.376      c2.606,0.138,5.184,0.329,7.914,0.53c3.39,0.25,6.896,0.509,10.432,0.656c1.486,0.061,2.972,0.126,4.457,0.19      c4.566,0.199,9.289,0.404,13.992,0.507c6.565,0.144,12.636,0.198,18.538,0.167c2.188-0.016,4.353,0.019,6.648,0.052      c3.881,0.055,7.894,0.112,11.979-0.05c1.985-0.08,3.928-0.183,5.854-0.299c0.272,0.012,0.544,0.028,0.815,0.039      c-0.016,1.516-0.012,3.013-0.007,4.496l0.005,2.256c-0.001,3.062,0.007,6.123,0.015,9.183c0.007,2.785,0.014,5.569,0.015,8.355      c-0.567,5.886-0.778,11.81-0.982,17.545l-0.2,5.348c-0.245,6.205-0.499,12.622,0.005,19.205      c0.242,3.146,0.658,6.419,1.266,9.933c-1.582-0.178-3.126-0.325-4.632-0.437c-3.621-0.269-7.225-0.392-10.709-0.511      c-3.165-0.108-6.436-0.22-9.639-0.441c-5.798-0.751-11.659-1.355-17.429-1.795c-1.635-0.125-3.269-0.259-4.903-0.394      c-4.118-0.34-8.375-0.691-12.667-0.878c-3.313-0.143-6.543-0.104-9.667-0.065c-2.692,0.033-5.234,0.065-7.732-0.017      c-3.182-0.104-6.33-0.284-9.663-0.474c-2.498-0.142-4.996-0.284-7.432-0.39l-3.954-0.204      c-5.243-0.273-10.664-0.556-16.032-0.648c-2.363-0.041-4.722-0.124-7.081-0.206c-4.197-0.146-8.536-0.3-12.946-0.223      c-4.065,0.07-7.962,0.43-11.731,0.778c-2.764,0.255-5.374,0.497-8.029,0.629c-2.618,0.131-4.97,1.273-6.682,3.043      c-1.024-0.004-2.039-0.007-3.04-0.007C-98.551,218.295-104.503,218.599-110.196,219.224z M185.346,176.817      c-0.097,2.649-0.171,5.3-0.246,7.952c-0.094,3.345-0.191,6.804-0.333,10.171c-0.122,2.908-0.363,5.827-0.618,8.917      c-0.247,2.981-0.501,6.063-0.646,9.189c-0.153,3.317-0.097,6.537-0.043,9.651c0.053,2.984,0.103,5.803-0.031,8.531      c-0.135,2.765-0.428,5.578-0.738,8.557c-0.322,3.089-0.655,6.283-0.818,9.565c-0.158,3.16-0.252,6.325-0.342,9.385      c-0.086,2.902-0.175,5.902-0.317,8.802c-0.158,3.223-0.231,6.436-0.302,9.543c-0.068,2.992-0.133,5.817-0.267,8.658      c-0.266,5.62-0.512,11.241-0.757,16.861l-0.059,1.346c-0.108,2.486-0.23,4.972-0.352,7.456      c-0.176,3.589-0.351,7.176-0.488,10.763c-0.105,2.71-0.322,5.438-0.553,8.326c-0.255,3.205-0.519,6.52-0.627,9.906      c-0.109,3.481-0.143,6.967-0.174,10.337c-0.024,2.646-0.049,5.291-0.111,7.932c-0.088,3.685-0.105,7.385-0.123,10.962      c-0.012,2.442-0.023,4.885-0.058,7.326c-0.051,3.678-0.02,7.359,0.012,10.921c0.021,2.46,0.042,4.921,0.036,7.382      c-0.005,1.908-0.016,3.815-0.027,5.723c-0.024,4.113-0.05,8.367-0.005,12.593c0.038,3.659,0.188,7.298,0.332,10.816      c0.104,2.501,0.207,5.002,0.269,7.507c0.064,2.571-0.004,5.197-0.076,7.978c-0.087,3.35-0.177,6.814-0.031,10.382      c0.11,2.706,0.319,5.408,0.55,8.06c-2.359,0.002-4.781,0.004-7.166,0.053c-2.977,0.062-5.896,0.242-8.718,0.417      c-3.039,0.188-5.91,0.366-8.738,0.396c-2.905,0.027-5.813-0.057-8.899-0.148c-2.69-0.08-5.471-0.163-8.278-0.163      c-0.102,0-0.202,0-0.303,0c-2.813-0.022-5.651-0.125-8.661-0.264c-2.86-0.132-5.818-0.268-8.828-0.283      c-3.207-0.02-6.27,0.168-9.247,0.347c-2.895,0.174-5.631,0.331-8.264,0.309c-2.337-0.026-4.675-0.045-7.013-0.063      c-3.501-0.026-7.002-0.054-10.504-0.11c-2.691-0.043-5.384-0.065-8.076-0.088c-3.152-0.025-6.305-0.052-9.456-0.112      c-2.829-0.055-5.648-0.193-8.633-0.339c-2.895-0.143-5.887-0.289-8.9-0.354c-2.679-0.057-5.405-0.257-8.291-0.469      c-2.988-0.22-6.078-0.446-9.25-0.517c-3.272-0.075-6.427,0.069-9.48,0.207c-2.838,0.127-5.518,0.247-8.105,0.192      c-2.653-0.057-5.346-0.245-8.197-0.445c-3.029-0.213-6.161-0.433-9.37-0.495c-3.228-0.064-6.39,0.031-9.447,0.122      c-2.838,0.085-5.519,0.165-8.161,0.122c-4.584-0.073-9.17-0.123-13.756-0.174l-3.854-0.042c-2.54-0.029-5.08-0.083-7.62-0.138      c-3.265-0.069-6.641-0.141-10-0.158c-2.468-0.014-4.936-0.051-7.405-0.087c-3.34-0.05-6.798-0.094-10.236-0.095      c-2.483,0.006-4.987,0.025-7.494,0.052c0.063-2.788,0.124-5.658,0.136-8.504c0.012-2.93-0.019-5.86-0.051-8.793      c-0.035-3.202-0.07-6.515-0.042-9.724c0.043-4.913,0.115-9.829,0.187-14.747l0.054-3.763c0.051-3.56,0.144-7.12,0.237-10.682      c0.068-2.605,0.137-5.211,0.189-7.817c0.064-3.194-0.007-6.339-0.075-9.379c-0.072-3.172-0.139-6.168-0.061-9.126      c0.095-3.6,0.243-7.293,0.386-10.865c0.102-2.54,0.203-5.08,0.289-7.621l0.169-5.209c0.142-4.423,0.284-8.847,0.466-13.269      c0.306-7.438,0.56-13.133,0.824-18.464c0.14-2.819,0.499-5.726,0.88-8.803c0.382-3.09,0.777-6.284,0.97-9.6      c0.186-3.188,0.218-6.318,0.25-9.346c0.033-3.182,0.064-6.187,0.263-9.126c0.24-3.539,0.558-7.181,0.866-10.703      c0.225-2.565,0.449-5.131,0.648-7.696c0.239-3.07,0.619-6.149,1.02-9.409c0.357-2.9,0.727-5.899,0.996-8.941      c0.176-1.98,0.326-3.928,0.479-5.878c2.492,0.052,4.983,0.083,7.471,0.111c3.737,0.043,7.601,0.088,11.337,0.218      c3.116,0.108,6.233,0.153,9.248,0.197c3.4,0.049,6.612,0.096,9.851,0.225c3.435,0.137,6.884,0.214,10.22,0.288      c2.985,0.067,5.97,0.133,8.954,0.243c2.768,0.102,5.58,0.352,8.557,0.616c3.443,0.306,7.004,0.623,10.676,0.716      c3.831,0.097,7.605,0.001,11.255-0.091c2.801-0.07,5.452-0.142,8.097-0.123c6.118,0.033,12.277-0.105,18.237-0.238l1.071-0.024      c2.66,0.001,5.32,0.035,7.98,0.068c4.268,0.053,8.68,0.107,13.101,0.03c1.742-0.031,3.502-0.05,5.269-0.07      c1.072-0.012,2.155-0.025,3.239-0.04c4.063,0.526,8.476,1.298,13.364,2.345c2.901,0.62,5.929-0.078,8.264-1.908      c2.335-1.831,3.737-4.604,3.826-7.569c0.208-6.88,0.157-13.952,0.112-20.191c-0.038-5.339-0.17-10.704-0.296-15.892      l-0.094-3.872c-0.152-6.515-0.303-13.022-0.414-19.538c-0.065-3.813,0.042-7.631,0.156-11.674      c0.071-2.544,0.143-5.091,0.171-7.641l0.024-2.196c0.059-5.677,0.12-11.548,0.458-17.13c0.328-5.418-3.726-10.108-9.134-10.568      c-0.068-0.006-0.135-0.009-0.203-0.014c-1.798-1.111-3.917-1.65-6.064-1.474c-3.69,0.302-7.342,0.585-11.026,0.817      c-0.222-0.013-0.457-0.017-0.677-0.031c-2.461-0.162-4.93-0.414-7.544-0.682c-3.258-0.334-6.626-0.679-10.08-0.846      c-3.421-0.166-6.766-0.145-9.996-0.125c-2.663,0.017-5.181,0.032-7.667-0.052c-2.335-0.079-4.668-0.183-7.001-0.286      c-3.46-0.153-7.038-0.312-10.616-0.389c-2.556-0.055-5.141-0.221-7.877-0.396c-3.142-0.201-6.391-0.408-9.717-0.448      c-3.34-0.042-6.69-0.019-9.929,0.004c-2.551,0.018-5.104,0.035-7.655,0.021c-2.68-0.014-5.342-0.091-8.162-0.172      c-3.055-0.088-6.213-0.179-9.393-0.183c-3.185,0.009-6.345,0.178-9.366,0.353c-0.767,0.045-1.52,0.088-2.266,0.128      c-1.71-0.129-3.444-0.283-5.246-0.447c-3.31-0.301-6.732-0.611-10.236-0.754c-0.136-0.005-0.272-0.008-0.408-0.008      c-3.926,0-7.962-0.06-11.865-0.117c-0.314-0.005-0.64-0.008-0.956-0.013c-0.11-3.155-0.432-6.148-0.747-8.943l-0.097-0.867      c-0.231-2.071-0.397-3.993-0.443-5.801c0.257-0.018,0.513-0.036,0.768-0.054c3.008-0.21,5.862-0.411,8.581-0.394      c3.533,0.022,7.066,0.079,10.599,0.136c2.551,0.042,5.103,0.083,7.655,0.111c2.652,0.029,5.304,0.044,7.957,0.059      c3.436,0.019,6.872,0.037,10.307,0.09c3.016,0.046,6.007,0.169,9.175,0.301c2.959,0.123,6.02,0.249,9.089,0.306      c3.054,0.056,6.205,0.171,9.252,0.283c2.943,0.108,5.986,0.219,9.02,0.282c3.071,0.063,6.14,0.167,9.21,0.272      c3.024,0.103,6.048,0.205,9.073,0.271c3.179,0.069,6.345,0.056,9.407,0.042c3.075-0.015,5.977-0.026,8.899,0.037      c2.918,0.063,5.936,0.191,8.854,0.314c3.078,0.13,6.262,0.265,9.447,0.332c2.736,0.058,5.472,0.125,8.207,0.193      c3.369,0.083,6.739,0.167,10.107,0.231c3.445,0.067,6.892,0.106,10.337,0.146c2.666,0.031,5.332,0.061,7.997,0.104      c2.167,0.038,4.355,0.055,6.664,0.114c2.278,0.059,4.633,0.119,7.015,0.119c0.01,0,0.02,0,0.029,0      c3.923-0.001,9.029-0.152,14.393-1.206c-0.022,0.396-0.044,0.792-0.067,1.192c-0.077,1.346-0.154,2.695-0.209,4.042      c-0.241,5.883,0.029,11.639,0.29,17.206l0.118,2.559c0.311,6.951,1.157,14.438,5.213,22.094c2.543,4.8,8.452,6.693,13.309,4.263      c1.078-0.539,2.659-0.369,6.016,0.149c2.047,0.315,4.351,0.671,6.886,0.712c3.205,0.277,6.247,0.382,9.193,0.484      c2.31,0.08,4.49,0.155,6.629,0.308c1.541,0.11,3.089,0.189,4.646,0.268c3.063,0.155,5.976,0.32,8.812,0.728      c-0.054,2.042-0.104,4.085-0.149,6.128C185.55,169.769,185.472,173.34,185.346,176.817z"/></g></g></g><g id="Layer_1_1_"/></g></svg>