<?xml version="1.0" encoding="UTF-8" standalone="no"?>
<!-- Created with Inkscape (http://www.inkscape.org/) -->

<svg
   width="256.0px"
   height="256.0px"
   viewBox="0 0 256.0 256.0"
   version="1.1"
   id="SVGRoot"
   sodipodi:docname="qrcode.svg"
   inkscape:version="1.2.2 (b0a8486541, 2022-12-01)"
   xml:space="preserve"
   xmlns:inkscape="http://www.inkscape.org/namespaces/inkscape"
   xmlns:sodipodi="http://sodipodi.sourceforge.net/DTD/sodipodi-0.dtd"
   xmlns="http://www.w3.org/2000/svg"
   xmlns:svg="http://www.w3.org/2000/svg"><sodipodi:namedview
     id="namedview137"
     pagecolor="#ffffff"
     bordercolor="#666666"
     borderopacity="1.0"
     inkscape:showpageshadow="2"
     inkscape:pageopacity="0.0"
     inkscape:pagecheckerboard="0"
     inkscape:deskcolor="#d1d1d1"
     inkscape:document-units="px"
     showgrid="true"
     inkscape:zoom="1.1893044"
     inkscape:cx="148.40608"
     inkscape:cy="219.45601"
     inkscape:window-width="2560"
     inkscape:window-height="1371"
     inkscape:window-x="1920"
     inkscape:window-y="32"
     inkscape:window-maximized="1"
     inkscape:current-layer="layer2"><inkscape:grid
       type="xygrid"
       id="grid260" /></sodipodi:namedview><defs
     id="defs132"><rect
       x="0"
       y="5"
       width="255"
       height="250"
       id="rect2095" /><clipPath
       clipPathUnits="userSpaceOnUse"
       id="clipPath1273"><path
         id="path1275"
         style="fill:#008080;fill-opacity:0.535853;stroke:#1c7c2a;stroke-width:10;stroke-linecap:round;stroke-opacity:0.519252"
         d="m 206.49609,85 a 91.372078,66.372078 0 0 1 4.87696,21.37305 A 91.372078,66.372078 0 0 1 120,172.74609 91.372078,66.372078 0 0 1 80.697266,166.14062 L 70,169.70703 V 255 H 260 V 85 Z" /></clipPath><clipPath
       clipPathUnits="userSpaceOnUse"
       id="clipPath1277"><path
         id="path1279"
         style="fill:#008080;fill-opacity:0.535853;stroke:#1c7c2a;stroke-width:10;stroke-linecap:round;stroke-opacity:0.519252"
         d="m 206.49609,85 a 91.372078,66.372078 0 0 1 4.87696,21.37305 A 91.372078,66.372078 0 0 1 120,172.74609 91.372078,66.372078 0 0 1 80.697266,166.14062 L 70,169.70703 V 255 H 260 V 85 Z" /></clipPath><rect
       x="0"
       y="5"
       width="255"
       height="250"
       id="rect3390" /><style
       id="style3641">.cls-1{fill:#0ea800;}.cls-2{fill:#005837;}</style></defs><g
     inkscape:label="Layer 1"
     inkscape:groupmode="layer"
     id="layer1" /><g
     inkscape:groupmode="layer"
     id="layer2"
     inkscape:label="Layer 2"><g
       inkscape:label="QR Code: https://james-clark.au/cv"
       transform="matrix(1.969697,0,0,1.969697,-2,0)"
       id="g683"><rect
         x="0"
         y="0"
         width="132"
         height="132"
         style="display:none;fill:#ffffff;stroke:none"
         id="rect677" /><g
         style="fill:#000000;stroke:none"
         id="g681"><path
           d="m 115.2,116 h -2.4 c -0.44183,0 -0.8,-0.35817 -0.8,-0.8 v -2.4 c 0,-0.44183 -0.35817,-0.8 -0.8,-0.8 h -6.4 c -0.44183,0 -0.8,0.35817 -0.8,0.8 v 2.4 c 0,0.44183 -0.35817,0.8 -0.8,0.8 h -2.4 c -0.44183,0 -0.8,-0.35817 -0.8,-0.8 v -2.4 c 0,-0.44183 -0.358172,-0.8 -0.8,-0.8 h -6.4 c -0.441828,0 -0.8,0.35817 -0.8,0.8 v 2.4 c 0,0.44183 -0.358172,0.8 -0.8,0.8 h -2.4 c -0.441828,0 -0.8,-0.35817 -0.8,-0.8 v -6.4 c 0,-0.44183 -0.358172,-0.8 -0.8,-0.8 h -2.4 c -0.441828,0 -0.8,-0.35817 -0.8,-0.8 v -6.4 c 0,-0.44183 -0.358172,-0.8 -0.8,-0.8 h -2.4 c -0.441828,0 -0.8,0.35817 -0.8,0.8 v 10.4 c 0,0.44183 0.358172,0.8 0.8,0.8 h 2.4 c 0.441828,0 0.8,0.35817 0.8,0.8 v 2.4 c 0,0.44183 -0.358172,0.8 -0.8,0.8 h -2.4 c -0.441828,0 -0.8,-0.35817 -0.8,-0.8 v -2.4 c 0,-0.44183 -0.358172,-0.8 -0.8,-0.8 h -6.4 c -0.441828,0 -0.8,-0.35817 -0.8,-0.8 v -2.4 c 0,-0.44183 -0.358172,-0.8 -0.8,-0.8 h -2.4 c -0.441828,0 -0.8,0.35817 -0.8,0.8 v 6.4 c 0,0.44183 -0.358172,0.8 -0.8,0.8 h -6.4 c -0.441828,0 -0.8,-0.35817 -0.8,-0.8 v -2.4 c 0,-0.44183 0.358172,-0.8 0.8,-0.8 h 2.4 c 0.441828,0 0.8,-0.35817 0.8,-0.8 v -2.4 c 0,-0.44183 -0.358172,-0.8 -0.8,-0.8 h -2.4 c -0.441828,0 -0.8,-0.35817 -0.8,-0.8 v -6.4 c 0,-0.44183 0.358172,-0.8 0.8,-0.8 h 2.4 c 0.441828,0 0.8,0.35817 0.8,0.8 v 6.4 c 0,0.44183 0.358172,0.8 0.8,0.8 h 2.4 c 0.441828,0 0.8,-0.35817 0.8,-0.8 v -6.4 c 0,-0.44183 0.358172,-0.8 0.8,-0.8 h 6.4 c 0.441828,0 0.8,-0.358172 0.8,-0.8 V 96.8 C 76,96.358172 76.358172,96 76.8,96 h 2.4 C 79.641828,96 80,95.641828 80,95.2 V 80.8 C 80,80.358172 80.358172,80 80.8,80 h 2.4 C 83.641828,80 84,79.641828 84,79.2 V 72.8 C 84,72.358172 83.641828,72 83.2,72 H 80.8 C 80.358172,72 80,72.358172 80,72.8 v 2.4 C 80,75.641828 79.641828,76 79.2,76 H 76.8 C 76.358172,76 76,75.641828 76,75.2 V 72.8 C 76,72.358172 75.641828,72 75.2,72 H 72.8 C 72.358172,72 72,72.358172 72,72.8 v 2.4 C 72,75.641828 71.641828,76 71.2,76 H 64.8 C 64.358172,76 64,76.358172 64,76.8 v 2.4 c 0,0.441828 0.358172,0.8 0.8,0.8 h 6.4 c 0.441828,0 0.8,0.358172 0.8,0.8 v 2.4 c 0,0.441828 0.358172,0.8 0.8,0.8 h 2.4 c 0.441828,0 0.8,0.358172 0.8,0.8 v 2.4 C 76,87.641828 75.641828,88 75.2,88 H 72.8 C 72.358172,88 72,88.358172 72,88.8 v 6.4 C 72,95.641828 71.641828,96 71.2,96 H 68.8 C 68.358172,96 68,95.641828 68,95.2 V 92.8 C 68,92.358172 67.641828,92 67.2,92 H 64.8 C 64.358172,92 64,92.358172 64,92.8 v 2.4 C 64,95.641828 63.641828,96 63.2,96 H 52.8 C 52.358172,96 52,96.358172 52,96.8 v 6.4 c 0,0.44183 0.358172,0.8 0.8,0.8 h 2.4 c 0.441828,0 0.8,0.35817 0.8,0.8 v 10.4 c 0,0.44183 -0.358172,0.8 -0.8,0.8 h -6.4 c -0.441828,0 -0.8,-0.35817 -0.8,-0.8 v -6.4 c 0,-0.44183 0.358172,-0.8 0.8,-0.8 h 2.4 c 0.441828,0 0.8,-0.35817 0.8,-0.8 v -2.4 C 52,104.35817 51.641828,104 51.2,104 H 48.8 C 48.358172,104 48,103.64183 48,103.2 V 96.8 C 48,96.358172 48.358172,96 48.8,96 h 2.4 C 51.641828,96 52,95.641828 52,95.2 V 88.8 C 52,88.358172 51.641828,88 51.2,88 H 48.8 C 48.358172,88 48,87.641828 48,87.2 V 80.8 C 48,80.358172 47.641828,80 47.2,80 H 44.8 C 44.358172,80 44,80.358172 44,80.8 v 2.4 C 44,83.641828 43.641828,84 43.2,84 H 36.8 C 36.358172,84 36,83.641828 36,83.2 V 80.8 C 36,80.358172 36.358172,80 36.8,80 h 6.4 C 43.641828,80 44,79.641828 44,79.2 V 76.8 C 44,76.358172 43.641828,76 43.2,76 H 36.8 C 36.358172,76 36,75.641828 36,75.2 V 72.8 C 36,72.358172 35.641828,72 35.2,72 H 32.8 C 32.358172,72 32,71.641828 32,71.2 V 60.8 C 32,60.358172 31.641828,60 31.2,60 H 28.8 C 28.358172,60 28,59.641828 28,59.2 V 56.8 C 28,56.358172 28.358172,56 28.8,56 h 2.4 C 31.641828,56 32,55.641828 32,55.2 V 52.8 C 32,52.358172 31.641828,52 31.2,52 H 28.8 C 28.358172,52 28,51.641828 28,51.2 V 48.8 C 28,48.358172 28.358172,48 28.8,48 h 6.4 c 0.441828,0 0.8,0.358172 0.8,0.8 v 2.4 c 0,0.441828 0.358172,0.8 0.8,0.8 h 2.4 C 39.641828,52 40,51.641828 40,51.2 V 48.8 C 40,48.358172 40.358172,48 40.8,48 h 2.4 c 0.441828,0 0.8,0.358172 0.8,0.8 v 2.4 C 44,51.641828 43.641828,52 43.2,52 H 40.8 C 40.358172,52 40,52.358172 40,52.8 v 2.4 c 0,0.441828 0.358172,0.8 0.8,0.8 h 2.4 c 0.441828,0 0.8,0.358172 0.8,0.8 v 2.4 c 0,0.441828 0.358172,0.8 0.8,0.8 h 2.4 C 47.641828,60 48,59.641828 48,59.2 V 52.8 C 48,52.358172 48.358172,52 48.8,52 h 2.4 C 51.641828,52 52,51.641828 52,51.2 V 48.8 C 52,48.358172 51.641828,48 51.2,48 H 48.8 C 48.358172,48 48,47.641828 48,47.2 V 40.8 C 48,40.358172 48.358172,40 48.8,40 h 2.4 c 0.441828,0 0.8,0.358172 0.8,0.8 v 6.4 c 0,0.441828 0.358172,0.8 0.8,0.8 h 2.4 C 55.641828,48 56,47.641828 56,47.2 V 36.8 C 56,36.358172 55.641828,36 55.2,36 H 52.8 C 52.358172,36 52,35.641828 52,35.2 V 32.8 C 52,32.358172 52.358172,32 52.8,32 h 2.4 c 0.441828,0 0.8,0.358172 0.8,0.8 v 2.4 c 0,0.441828 0.358172,0.8 0.8,0.8 h 2.4 C 59.641828,36 60,35.641828 60,35.2 V 32.8 C 60,32.358172 60.358172,32 60.8,32 h 2.4 C 63.641828,32 64,31.641828 64,31.2 V 24.8 C 64,24.358172 64.358172,24 64.8,24 h 6.4 C 71.641828,24 72,23.641828 72,23.2 V 20.8 C 72,20.358172 71.641828,20 71.2,20 H 60.8 C 60.358172,20 60,20.358172 60,20.8 v 6.4 C 60,27.641828 59.641828,28 59.2,28 H 56.8 C 56.358172,28 56,27.641828 56,27.2 V 24.8 C 56,24.358172 55.641828,24 55.2,24 H 52.8 C 52.358172,24 52,23.641828 52,23.2 V 20.8 C 52,20.358172 51.641828,20 51.2,20 H 48.8 C 48.358172,20 48,19.641828 48,19.2 V 16.8 C 48,16.358172 48.358172,16 48.8,16 h 2.4 c 0.441828,0 0.8,0.358172 0.8,0.8 v 2.4 c 0,0.441828 0.358172,0.8 0.8,0.8 h 6.4 C 59.641828,20 60,19.641828 60,19.2 V 16.8 C 60,16.358172 60.358172,16 60.8,16 h 10.4 c 0.441828,0 0.8,0.358172 0.8,0.8 v 2.4 c 0,0.441828 0.358172,0.8 0.8,0.8 h 2.4 c 0.441828,0 0.8,0.358172 0.8,0.8 v 2.4 c 0,0.441828 0.358172,0.8 0.8,0.8 h 2.4 C 79.641828,24 80,23.641828 80,23.2 V 20.8 C 80,20.358172 80.358172,20 80.8,20 h 2.4 c 0.441828,0 0.8,0.358172 0.8,0.8 V 51.2 C 84,51.641828 83.641828,52 83.2,52 H 80.8 C 80.358172,52 80,52.358172 80,52.8 v 2.4 c 0,0.441828 0.358172,0.8 0.8,0.8 H 91.2 C 91.641828,56 92,55.641828 92,55.2 V 52.8 C 92,52.358172 91.641828,52 91.2,52 H 88.8 C 88.358172,52 88,51.641828 88,51.2 V 48.8 C 88,48.358172 88.358172,48 88.8,48 h 2.4 c 0.441828,0 0.8,0.358172 0.8,0.8 v 2.4 c 0,0.441828 0.358172,0.8 0.8,0.8 h 18.4 c 0.44183,0 0.8,-0.358172 0.8,-0.8 v -2.4 c 0,-0.441828 0.35817,-0.8 0.8,-0.8 h 2.4 c 0.44183,0 0.8,0.358172 0.8,0.8 v 2.4 c 0,0.441828 -0.35817,0.8 -0.8,0.8 h -2.4 c -0.44183,0 -0.8,0.358172 -0.8,0.8 v 2.4 c 0,0.441828 0.35817,0.8 0.8,0.8 h 2.4 c 0.44183,0 0.8,0.358172 0.8,0.8 v 10.4 c 0,0.441828 -0.35817,0.8 -0.8,0.8 h -2.4 c -0.44183,0 -0.8,0.358172 -0.8,0.8 v 2.4 c 0,0.441828 0.35817,0.8 0.8,0.8 h 2.4 c 0.44183,0 0.8,0.358172 0.8,0.8 v 6.4 c 0,0.441828 -0.35817,0.8 -0.8,0.8 h -2.4 c -0.44183,0 -0.8,0.358172 -0.8,0.8 v 6.4 c 0,0.441828 0.35817,0.8 0.8,0.8 h 2.4 c 0.44183,0 0.8,0.358172 0.8,0.8 v 6.4 c 0,0.441828 -0.35817,0.8 -0.8,0.8 h -6.4 c -0.44183,0 -0.8,-0.358172 -0.8,-0.8 v -2.4 c 0,-0.441828 0.35817,-0.8 0.8,-0.8 h 2.4 c 0.44183,0 0.8,-0.358172 0.8,-0.8 v -2.4 c 0,-0.441828 -0.35817,-0.8 -0.8,-0.8 h -6.4 c -0.44183,0 -0.8,-0.358172 -0.8,-0.8 v -6.4 c 0,-0.441828 -0.35817,-0.8 -0.8,-0.8 h -2.4 c -0.44183,0 -0.8,0.358172 -0.8,0.8 v 18.4 c 0,0.441828 -0.358172,0.8 -0.8,0.8 h -6.4 c -0.441828,0 -0.8,0.35817 -0.8,0.8 v 2.4 c 0,0.44183 -0.358172,0.8 -0.8,0.8 h -2.4 c -0.441828,0 -0.8,0.35817 -0.8,0.8 v 2.4 c 0,0.44183 0.358172,0.8 0.8,0.8 h 6.4 c 0.441828,0 0.8,-0.35817 0.8,-0.8 v -2.4 c 0,-0.44183 0.358172,-0.8 0.8,-0.8 h 10.4 c 0.44183,0 0.8,-0.35817 0.8,-0.8 v -2.4 c 0,-0.44183 0.35817,-0.8 0.8,-0.8 h 6.4 c 0.44183,0 0.8,0.35817 0.8,0.8 v 14.4 c 0,0.44183 -0.35817,0.8 -0.8,0.8 z m -72,0 H 16.8 C 16.358172,116 16,115.64183 16,115.2 V 88.8 C 16,88.358172 16.358172,88 16.8,88 h 26.4 c 0.441828,0 0.8,0.358172 0.8,0.8 v 26.4 c 0,0.44183 -0.358172,0.8 -0.8,0.8 z m 60.8,-4.8 v -2.4 c 0,-0.44183 -0.35817,-0.8 -0.8,-0.8 h -2.4 c -0.44183,0 -0.8,0.35817 -0.8,0.8 v 2.4 c 0,0.44183 0.35817,0.8 0.8,0.8 h 2.4 c 0.44183,0 0.8,-0.35817 0.8,-0.8 z m -64,0 V 92.8 C 40,92.358172 39.641828,92 39.2,92 H 20.8 C 20.358172,92 20,92.358172 20,92.8 v 18.4 c 0,0.44183 0.358172,0.8 0.8,0.8 h 18.4 c 0.441828,0 0.8,-0.35817 0.8,-0.8 z m 36,-4 v -2.4 c 0,-0.44183 -0.358172,-0.8 -0.8,-0.8 h -2.4 c -0.441828,0 -0.8,0.35817 -0.8,0.8 v 2.4 c 0,0.44183 0.358172,0.8 0.8,0.8 h 2.4 c 0.441828,0 0.8,-0.35817 0.8,-0.8 z M 35.2,108 H 24.8 C 24.358172,108 24,107.64183 24,107.2 V 96.8 C 24,96.358172 24.358172,96 24.8,96 h 10.4 c 0.441828,0 0.8,0.358172 0.8,0.8 v 10.4 c 0,0.44183 -0.358172,0.8 -0.8,0.8 z M 96,95.2 V 84.8 C 96,84.358172 95.641828,84 95.2,84 H 84.8 C 84.358172,84 84,84.358172 84,84.8 v 10.4 c 0,0.441828 0.358172,0.8 0.8,0.8 H 95.2 C 95.641828,96 96,95.641828 96,95.2 Z M 91.2,92 H 88.8 C 88.358172,92 88,91.641828 88,91.2 V 88.8 C 88,88.358172 88.358172,88 88.8,88 h 2.4 c 0.441828,0 0.8,0.358172 0.8,0.8 v 2.4 C 92,91.641828 91.641828,92 91.2,92 Z M 60,91.2 V 88.8 C 60,88.358172 59.641828,88 59.2,88 H 56.8 C 56.358172,88 56,88.358172 56,88.8 v 2.4 c 0,0.441828 0.358172,0.8 0.8,0.8 h 2.4 c 0.441828,0 0.8,-0.358172 0.8,-0.8 z m 12,-4 V 84.8 C 72,84.358172 71.641828,84 71.2,84 H 68.8 C 68.358172,84 68,84.358172 68,84.8 v 2.4 c 0,0.441828 0.358172,0.8 0.8,0.8 h 2.4 c 0.441828,0 0.8,-0.358172 0.8,-0.8 z m -16,0 V 84.8 C 56,84.358172 55.641828,84 55.2,84 H 52.8 C 52.358172,84 52,84.358172 52,84.8 v 2.4 c 0,0.441828 0.358172,0.8 0.8,0.8 h 2.4 c 0.441828,0 0.8,-0.358172 0.8,-0.8 z m 8,-4 V 80.8 C 64,80.358172 63.641828,80 63.2,80 H 60.8 C 60.358172,80 60,80.358172 60,80.8 v 2.4 c 0,0.441828 0.358172,0.8 0.8,0.8 h 2.4 C 63.641828,84 64,83.641828 64,83.2 Z M 31.2,84 H 28.8 C 28.358172,84 28,83.641828 28,83.2 V 76.8 C 28,76.358172 28.358172,76 28.8,76 h 2.4 c 0.441828,0 0.8,0.358172 0.8,0.8 v 6.4 c 0,0.441828 -0.358172,0.8 -0.8,0.8 z m -12,0 H 16.8 C 16.358172,84 16,83.641828 16,83.2 V 64.8 C 16,64.358172 16.358172,64 16.8,64 h 2.4 C 19.641828,64 20,63.641828 20,63.2 V 60.8 C 20,60.358172 19.641828,60 19.2,60 H 16.8 C 16.358172,60 16,59.641828 16,59.2 V 56.8 C 16,56.358172 16.358172,56 16.8,56 h 2.4 C 19.641828,56 20,55.641828 20,55.2 V 52.8 C 20,52.358172 19.641828,52 19.2,52 H 16.8 C 16.358172,52 16,51.641828 16,51.2 V 48.8 C 16,48.358172 16.358172,48 16.8,48 h 6.4 c 0.441828,0 0.8,0.358172 0.8,0.8 v 6.4 C 24,55.641828 23.641828,56 23.2,56 H 20.8 C 20.358172,56 20,56.358172 20,56.8 v 2.4 c 0,0.441828 0.358172,0.8 0.8,0.8 h 2.4 c 0.441828,0 0.8,0.358172 0.8,0.8 v 2.4 c 0,0.441828 0.358172,0.8 0.8,0.8 h 2.4 c 0.441828,0 0.8,0.358172 0.8,0.8 v 2.4 C 28,67.641828 27.641828,68 27.2,68 H 20.8 C 20.358172,68 20,68.358172 20,68.8 v 2.4 c 0,0.441828 0.358172,0.8 0.8,0.8 h 2.4 c 0.441828,0 0.8,0.358172 0.8,0.8 v 2.4 C 24,75.641828 23.641828,76 23.2,76 H 20.8 C 20.358172,76 20,76.358172 20,76.8 v 6.4 C 20,83.641828 19.641828,84 19.2,84 Z M 112,79.2 v -2.4 c 0,-0.441828 -0.35817,-0.8 -0.8,-0.8 h -2.4 c -0.44183,0 -0.8,0.358172 -0.8,0.8 v 2.4 c 0,0.441828 0.35817,0.8 0.8,0.8 h 2.4 c 0.44183,0 0.8,-0.358172 0.8,-0.8 z m -12,0 V 76.8 C 100,76.358172 99.641828,76 99.2,76 H 96.8 C 96.358172,76 96,76.358172 96,76.8 v 2.4 c 0,0.441828 0.358172,0.8 0.8,0.8 h 2.4 c 0.441828,0 0.8,-0.358172 0.8,-0.8 z m -40,0 V 72.8 C 60,72.358172 60.358172,72 60.8,72 h 6.4 C 67.641828,72 68,71.641828 68,71.2 V 68.8 C 68,68.358172 67.641828,68 67.2,68 H 60.8 C 60.358172,68 60,67.641828 60,67.2 V 64.8 C 60,64.358172 59.641828,64 59.2,64 H 56.8 C 56.358172,64 56,64.358172 56,64.8 v 2.4 C 56,67.641828 55.641828,68 55.2,68 H 52.8 C 52.358172,68 52,67.641828 52,67.2 V 64.8 C 52,64.358172 51.641828,64 51.2,64 H 44.8 C 44.358172,64 44,64.358172 44,64.8 v 2.4 c 0,0.441828 0.358172,0.8 0.8,0.8 h 2.4 c 0.441828,0 0.8,0.358172 0.8,0.8 v 2.4 c 0,0.441828 0.358172,0.8 0.8,0.8 h 6.4 c 0.441828,0 0.8,0.358172 0.8,0.8 v 2.4 C 56,75.641828 55.641828,76 55.2,76 H 52.8 C 52.358172,76 52,76.358172 52,76.8 v 2.4 c 0,0.441828 0.358172,0.8 0.8,0.8 h 6.4 c 0.441828,0 0.8,-0.358172 0.8,-0.8 z m 36,-4 V 68.8 C 96,68.358172 95.641828,68 95.2,68 H 88.8 C 88.358172,68 88,67.641828 88,67.2 V 60.8 C 88,60.358172 87.641828,60 87.2,60 H 84.8 C 84.358172,60 84,60.358172 84,60.8 v 10.4 c 0,0.441828 0.358172,0.8 0.8,0.8 h 2.4 c 0.441828,0 0.8,0.358172 0.8,0.8 v 2.4 c 0,0.441828 0.358172,0.8 0.8,0.8 h 6.4 c 0.441828,0 0.8,-0.358172 0.8,-0.8 z m -48,0 V 72.8 C 48,72.358172 47.641828,72 47.2,72 H 44.8 C 44.358172,72 44,72.358172 44,72.8 v 2.4 c 0,0.441828 0.358172,0.8 0.8,0.8 h 2.4 c 0.441828,0 0.8,-0.358172 0.8,-0.8 z m 60,-4 v -2.4 c 0,-0.441828 0.35817,-0.8 0.8,-0.8 h 2.4 c 0.44183,0 0.8,-0.358172 0.8,-0.8 V 64.8 C 112,64.358172 111.64183,64 111.2,64 H 96.8 C 96.358172,64 96,64.358172 96,64.8 v 2.4 c 0,0.441828 0.358172,0.8 0.8,0.8 h 2.4 c 0.441828,0 0.8,0.358172 0.8,0.8 v 2.4 c 0,0.441828 0.35817,0.8 0.8,0.8 h 6.4 c 0.44183,0 0.8,-0.358172 0.8,-0.8 z m -64,0 V 68.8 C 44,68.358172 43.641828,68 43.2,68 H 40.8 C 40.358172,68 40,68.358172 40,68.8 v 2.4 c 0,0.441828 0.358172,0.8 0.8,0.8 h 2.4 c 0.441828,0 0.8,-0.358172 0.8,-0.8 z m 32,-4 V 56.8 C 76,56.358172 75.641828,56 75.2,56 H 72.8 C 72.358172,56 72,56.358172 72,56.8 v 2.4 C 72,59.641828 71.641828,60 71.2,60 H 68.8 C 68.358172,60 68,60.358172 68,60.8 v 6.4 c 0,0.441828 0.358172,0.8 0.8,0.8 h 6.4 c 0.441828,0 0.8,-0.358172 0.8,-0.8 z m -36,0 V 64.8 C 40,64.358172 40.358172,64 40.8,64 h 2.4 C 43.641828,64 44,63.641828 44,63.2 V 60.8 C 44,60.358172 43.641828,60 43.2,60 H 36.8 C 36.358172,60 36,60.358172 36,60.8 v 6.4 c 0,0.441828 0.358172,0.8 0.8,0.8 h 2.4 c 0.441828,0 0.8,-0.358172 0.8,-0.8 z m 56,-4 V 60.8 C 96,60.358172 96.358172,60 96.8,60 h 2.4 c 0.441828,0 0.8,-0.358172 0.8,-0.8 V 56.8 C 100,56.358172 99.641828,56 99.2,56 H 92.8 C 92.358172,56 92,56.358172 92,56.8 v 6.4 c 0,0.441828 0.358172,0.8 0.8,0.8 h 2.4 c 0.441828,0 0.8,-0.358172 0.8,-0.8 z m 16,-4 v -2.4 c 0,-0.441828 -0.35817,-0.8 -0.8,-0.8 h -6.4 c -0.44183,0 -0.8,0.358172 -0.8,0.8 v 2.4 c 0,0.441828 0.35817,0.8 0.8,0.8 h 6.4 c 0.44183,0 0.8,-0.358172 0.8,-0.8 z m -44,0 V 56.8 C 68,56.358172 67.641828,56 67.2,56 H 64.8 C 64.358172,56 64,56.358172 64,56.8 v 2.4 c 0,0.441828 0.358172,0.8 0.8,0.8 h 2.4 c 0.441828,0 0.8,-0.358172 0.8,-0.8 z m -12,0 V 56.8 C 56,56.358172 55.641828,56 55.2,56 H 52.8 C 52.358172,56 52,56.358172 52,56.8 v 2.4 c 0,0.441828 0.358172,0.8 0.8,0.8 h 2.4 c 0.441828,0 0.8,-0.358172 0.8,-0.8 z m 8,-4 V 52.8 C 64,52.358172 63.641828,52 63.2,52 H 56.8 C 56.358172,52 56,52.358172 56,52.8 v 2.4 c 0,0.441828 0.358172,0.8 0.8,0.8 h 6.4 c 0.441828,0 0.8,-0.358172 0.8,-0.8 z m 16,-4 V 28.8 C 80,28.358172 79.641828,28 79.2,28 H 76.8 C 76.358172,28 76,27.641828 76,27.2 V 24.8 C 76,24.358172 75.641828,24 75.2,24 H 72.8 C 72.358172,24 72,24.358172 72,24.8 v 6.4 c 0,0.441828 0.358172,0.8 0.8,0.8 h 2.4 c 0.441828,0 0.8,0.358172 0.8,0.8 v 2.4 C 76,35.641828 75.641828,36 75.2,36 H 72.8 C 72.358172,36 72,36.358172 72,36.8 v 2.4 c 0,0.441828 0.358172,0.8 0.8,0.8 h 2.4 c 0.441828,0 0.8,0.358172 0.8,0.8 v 2.4 C 76,43.641828 75.641828,44 75.2,44 H 72.8 C 72.358172,44 72,44.358172 72,44.8 v 2.4 C 72,47.641828 71.641828,48 71.2,48 H 68.8 C 68.358172,48 68,47.641828 68,47.2 V 44.8 C 68,44.358172 67.641828,44 67.2,44 H 64.8 C 64.358172,44 64,44.358172 64,44.8 v 6.4 c 0,0.441828 0.358172,0.8 0.8,0.8 H 79.2 C 79.641828,52 80,51.641828 80,51.2 Z M 115.2,44 H 88.8 C 88.358172,44 88,43.641828 88,43.2 V 16.8 C 88,16.358172 88.358172,16 88.8,16 h 26.4 c 0.44183,0 0.8,0.358172 0.8,0.8 v 26.4 c 0,0.441828 -0.35817,0.8 -0.8,0.8 z M 72,43.2 V 40.8 C 72,40.358172 71.641828,40 71.2,40 H 68.8 C 68.358172,40 68,40.358172 68,40.8 v 2.4 c 0,0.441828 0.358172,0.8 0.8,0.8 h 2.4 c 0.441828,0 0.8,-0.358172 0.8,-0.8 z m -8,0 V 36.8 C 64,36.358172 63.641828,36 63.2,36 H 60.8 C 60.358172,36 60,36.358172 60,36.8 v 6.4 c 0,0.441828 0.358172,0.8 0.8,0.8 h 2.4 C 63.641828,44 64,43.641828 64,43.2 Z M 43.2,44 H 16.8 C 16.358172,44 16,43.641828 16,43.2 V 16.8 C 16,16.358172 16.358172,16 16.8,16 h 26.4 c 0.441828,0 0.8,0.358172 0.8,0.8 V 43.2 C 44,43.641828 43.641828,44 43.2,44 Z M 112,39.2 V 20.8 C 112,20.358172 111.64183,20 111.2,20 H 92.8 C 92.358172,20 92,20.358172 92,20.8 v 18.4 c 0,0.441828 0.358172,0.8 0.8,0.8 h 18.4 c 0.44183,0 0.8,-0.358172 0.8,-0.8 z m -72,0 V 20.8 C 40,20.358172 39.641828,20 39.2,20 H 20.8 C 20.358172,20 20,20.358172 20,20.8 v 18.4 c 0,0.441828 0.358172,0.8 0.8,0.8 H 39.2 C 39.641828,40 40,39.641828 40,39.2 Z M 107.2,36 H 96.8 C 96.358172,36 96,35.641828 96,35.2 V 24.8 C 96,24.358172 96.358172,24 96.8,24 h 10.4 c 0.44183,0 0.8,0.358172 0.8,0.8 v 10.4 c 0,0.441828 -0.35817,0.8 -0.8,0.8 z M 68,35.2 V 32.8 C 68,32.358172 67.641828,32 67.2,32 H 64.8 C 64.358172,32 64,32.358172 64,32.8 v 2.4 c 0,0.441828 0.358172,0.8 0.8,0.8 h 2.4 C 67.641828,36 68,35.641828 68,35.2 Z M 35.2,36 H 24.8 C 24.358172,36 24,35.641828 24,35.2 V 24.8 C 24,24.358172 24.358172,24 24.8,24 h 10.4 c 0.441828,0 0.8,0.358172 0.8,0.8 v 10.4 c 0,0.441828 -0.358172,0.8 -0.8,0.8 z"
           id="path679" /></g></g></g><style
     id="style391">.st0{fill:#363636}</style></svg>
